<?xml version="1.0" encoding="utf-8" standalone="no"?>
<!DOCTYPE svg PUBLIC "-//W3C//DTD SVG 1.1//EN"
  "http://www.w3.org/Graphics/SVG/1.1/DTD/svg11.dtd">
<svg xmlns:xlink="http://www.w3.org/1999/xlink" width="460.8pt" height="345.6pt" viewBox="0 0 460.8 345.6" xmlns="http://www.w3.org/2000/svg" version="1.1">
 <metadata>
  <rdf:RDF xmlns:dc="http://purl.org/dc/elements/1.1/" xmlns:cc="http://creativecommons.org/ns#" xmlns:rdf="http://www.w3.org/1999/02/22-rdf-syntax-ns#">
   <cc:Work>
    <dc:type rdf:resource="http://purl.org/dc/dcmitype/StillImage"/>
    <dc:date>1980-01-01T00:00:00+00:00</dc:date>
    <dc:format>image/svg+xml</dc:format>
    <dc:creator>
     <cc:Agent>
      <dc:title>Matplotlib v3.8.3, https://matplotlib.org/</dc:title>
     </cc:Agent>
    </dc:creator>
   </cc:Work>
  </rdf:RDF>
 </metadata>
 <defs>
  <style type="text/css">*{stroke-linejoin: round; stroke-linecap: butt}</style>
 </defs>
 <g id="figure_1">
  <g id="patch_1">
   <path d="M 0 345.6 
L 460.8 345.6 
L 460.8 0 
L 0 0 
z
" style="fill: #ffffff"/>
  </g>
  <g id="axes_1">
   <g id="patch_2">
    <path d="M 57.6 307.584 
L 414.72 307.584 
L 414.72 41.472 
L 57.6 41.472 
z
" style="fill: #ffffff"/>
   </g>
   <g id="matplotlib.axis_1">
    <g id="xtick_1">
     <g id="line2d_1">
      <defs>
       <path id="m902049b5cf" d="M 0 0 
L 0 3.5 
" style="stroke: #000000; stroke-width: 0.8"/>
      </defs>
      <g>
       <use xlink:href="#m902049b5cf" x="73.828218" y="307.584" style="stroke: #000000; stroke-width: 0.8"/>
      </g>
     </g>
     <g id="text_1">
      <!-- 0.0 -->
      <g transform="translate(65.876656 322.182437) scale(0.1 -0.1)">
       <defs>
        <path id="DejaVuSans-30" d="M 2034 4250 
Q 1547 4250 1301 3770 
Q 1056 3291 1056 2328 
Q 1056 1369 1301 889 
Q 1547 409 2034 409 
Q 2525 409 2770 889 
Q 3016 1369 3016 2328 
Q 3016 3291 2770 3770 
Q 2525 4250 2034 4250 
z
M 2034 4750 
Q 2819 4750 3233 4129 
Q 3647 3509 3647 2328 
Q 3647 1150 3233 529 
Q 2819 -91 2034 -91 
Q 1250 -91 836 529 
Q 422 1150 422 2328 
Q 422 3509 836 4129 
Q 1250 4750 2034 4750 
z
" transform="scale(0.015625)"/>
        <path id="DejaVuSans-2e" d="M 684 794 
L 1344 794 
L 1344 0 
L 684 0 
L 684 794 
z
" transform="scale(0.015625)"/>
       </defs>
       <use xlink:href="#DejaVuSans-30"/>
       <use xlink:href="#DejaVuSans-2e" x="63.623047"/>
       <use xlink:href="#DejaVuSans-30" x="95.410156"/>
      </g>
     </g>
    </g>
    <g id="xtick_2">
     <g id="line2d_2">
      <g>
       <use xlink:href="#m902049b5cf" x="118.919753" y="307.584" style="stroke: #000000; stroke-width: 0.8"/>
      </g>
     </g>
     <g id="text_2">
      <!-- 0.5 -->
      <g transform="translate(110.968191 322.182437) scale(0.1 -0.1)">
       <defs>
        <path id="DejaVuSans-35" d="M 691 4666 
L 3169 4666 
L 3169 4134 
L 1269 4134 
L 1269 2991 
Q 1406 3038 1543 3061 
Q 1681 3084 1819 3084 
Q 2600 3084 3056 2656 
Q 3513 2228 3513 1497 
Q 3513 744 3044 326 
Q 2575 -91 1722 -91 
Q 1428 -91 1123 -41 
Q 819 9 494 109 
L 494 744 
Q 775 591 1075 516 
Q 1375 441 1709 441 
Q 2250 441 2565 725 
Q 2881 1009 2881 1497 
Q 2881 1984 2565 2268 
Q 2250 2553 1709 2553 
Q 1456 2553 1204 2497 
Q 953 2441 691 2322 
L 691 4666 
z
" transform="scale(0.015625)"/>
       </defs>
       <use xlink:href="#DejaVuSans-30"/>
       <use xlink:href="#DejaVuSans-2e" x="63.623047"/>
       <use xlink:href="#DejaVuSans-35" x="95.410156"/>
      </g>
     </g>
    </g>
    <g id="xtick_3">
     <g id="line2d_3">
      <g>
       <use xlink:href="#m902049b5cf" x="164.011289" y="307.584" style="stroke: #000000; stroke-width: 0.8"/>
      </g>
     </g>
     <g id="text_3">
      <!-- 1.0 -->
      <g transform="translate(156.059726 322.182437) scale(0.1 -0.1)">
       <defs>
        <path id="DejaVuSans-31" d="M 794 531 
L 1825 531 
L 1825 4091 
L 703 3866 
L 703 4441 
L 1819 4666 
L 2450 4666 
L 2450 531 
L 3481 531 
L 3481 0 
L 794 0 
L 794 531 
z
" transform="scale(0.015625)"/>
       </defs>
       <use xlink:href="#DejaVuSans-31"/>
       <use xlink:href="#DejaVuSans-2e" x="63.623047"/>
       <use xlink:href="#DejaVuSans-30" x="95.410156"/>
      </g>
     </g>
    </g>
    <g id="xtick_4">
     <g id="line2d_4">
      <g>
       <use xlink:href="#m902049b5cf" x="209.102824" y="307.584" style="stroke: #000000; stroke-width: 0.8"/>
      </g>
     </g>
     <g id="text_4">
      <!-- 1.5 -->
      <g transform="translate(201.151262 322.182437) scale(0.1 -0.1)">
       <use xlink:href="#DejaVuSans-31"/>
       <use xlink:href="#DejaVuSans-2e" x="63.623047"/>
       <use xlink:href="#DejaVuSans-35" x="95.410156"/>
      </g>
     </g>
    </g>
    <g id="xtick_5">
     <g id="line2d_5">
      <g>
       <use xlink:href="#m902049b5cf" x="254.19436" y="307.584" style="stroke: #000000; stroke-width: 0.8"/>
      </g>
     </g>
     <g id="text_5">
      <!-- 2.0 -->
      <g transform="translate(246.242797 322.182437) scale(0.1 -0.1)">
       <defs>
        <path id="DejaVuSans-32" d="M 1228 531 
L 3431 531 
L 3431 0 
L 469 0 
L 469 531 
Q 828 903 1448 1529 
Q 2069 2156 2228 2338 
Q 2531 2678 2651 2914 
Q 2772 3150 2772 3378 
Q 2772 3750 2511 3984 
Q 2250 4219 1831 4219 
Q 1534 4219 1204 4116 
Q 875 4013 500 3803 
L 500 4441 
Q 881 4594 1212 4672 
Q 1544 4750 1819 4750 
Q 2544 4750 2975 4387 
Q 3406 4025 3406 3419 
Q 3406 3131 3298 2873 
Q 3191 2616 2906 2266 
Q 2828 2175 2409 1742 
Q 1991 1309 1228 531 
z
" transform="scale(0.015625)"/>
       </defs>
       <use xlink:href="#DejaVuSans-32"/>
       <use xlink:href="#DejaVuSans-2e" x="63.623047"/>
       <use xlink:href="#DejaVuSans-30" x="95.410156"/>
      </g>
     </g>
    </g>
    <g id="xtick_6">
     <g id="line2d_6">
      <g>
       <use xlink:href="#m902049b5cf" x="299.285895" y="307.584" style="stroke: #000000; stroke-width: 0.8"/>
      </g>
     </g>
     <g id="text_6">
      <!-- 2.5 -->
      <g transform="translate(291.334332 322.182437) scale(0.1 -0.1)">
       <use xlink:href="#DejaVuSans-32"/>
       <use xlink:href="#DejaVuSans-2e" x="63.623047"/>
       <use xlink:href="#DejaVuSans-35" x="95.410156"/>
      </g>
     </g>
    </g>
    <g id="xtick_7">
     <g id="line2d_7">
      <g>
       <use xlink:href="#m902049b5cf" x="344.37743" y="307.584" style="stroke: #000000; stroke-width: 0.8"/>
      </g>
     </g>
     <g id="text_7">
      <!-- 3.0 -->
      <g transform="translate(336.425868 322.182437) scale(0.1 -0.1)">
       <defs>
        <path id="DejaVuSans-33" d="M 2597 2516 
Q 3050 2419 3304 2112 
Q 3559 1806 3559 1356 
Q 3559 666 3084 287 
Q 2609 -91 1734 -91 
Q 1441 -91 1130 -33 
Q 819 25 488 141 
L 488 750 
Q 750 597 1062 519 
Q 1375 441 1716 441 
Q 2309 441 2620 675 
Q 2931 909 2931 1356 
Q 2931 1769 2642 2001 
Q 2353 2234 1838 2234 
L 1294 2234 
L 1294 2753 
L 1863 2753 
Q 2328 2753 2575 2939 
Q 2822 3125 2822 3475 
Q 2822 3834 2567 4026 
Q 2313 4219 1838 4219 
Q 1578 4219 1281 4162 
Q 984 4106 628 3988 
L 628 4550 
Q 988 4650 1302 4700 
Q 1616 4750 1894 4750 
Q 2613 4750 3031 4423 
Q 3450 4097 3450 3541 
Q 3450 3153 3228 2886 
Q 3006 2619 2597 2516 
z
" transform="scale(0.015625)"/>
       </defs>
       <use xlink:href="#DejaVuSans-33"/>
       <use xlink:href="#DejaVuSans-2e" x="63.623047"/>
       <use xlink:href="#DejaVuSans-30" x="95.410156"/>
      </g>
     </g>
    </g>
    <g id="xtick_8">
     <g id="line2d_8">
      <g>
       <use xlink:href="#m902049b5cf" x="389.468966" y="307.584" style="stroke: #000000; stroke-width: 0.8"/>
      </g>
     </g>
     <g id="text_8">
      <!-- 3.5 -->
      <g transform="translate(381.517403 322.182437) scale(0.1 -0.1)">
       <use xlink:href="#DejaVuSans-33"/>
       <use xlink:href="#DejaVuSans-2e" x="63.623047"/>
       <use xlink:href="#DejaVuSans-35" x="95.410156"/>
      </g>
     </g>
    </g>
    <g id="text_9">
     <!--  time -->
     <g transform="translate(223.274844 335.860562) scale(0.1 -0.1)">
      <defs>
       <path id="DejaVuSans-20" transform="scale(0.015625)"/>
       <path id="DejaVuSans-74" d="M 1172 4494 
L 1172 3500 
L 2356 3500 
L 2356 3053 
L 1172 3053 
L 1172 1153 
Q 1172 725 1289 603 
Q 1406 481 1766 481 
L 2356 481 
L 2356 0 
L 1766 0 
Q 1100 0 847 248 
Q 594 497 594 1153 
L 594 3053 
L 172 3053 
L 172 3500 
L 594 3500 
L 594 4494 
L 1172 4494 
z
" transform="scale(0.015625)"/>
       <path id="DejaVuSans-69" d="M 603 3500 
L 1178 3500 
L 1178 0 
L 603 0 
L 603 3500 
z
M 603 4863 
L 1178 4863 
L 1178 4134 
L 603 4134 
L 603 4863 
z
" transform="scale(0.015625)"/>
       <path id="DejaVuSans-6d" d="M 3328 2828 
Q 3544 3216 3844 3400 
Q 4144 3584 4550 3584 
Q 5097 3584 5394 3201 
Q 5691 2819 5691 2113 
L 5691 0 
L 5113 0 
L 5113 2094 
Q 5113 2597 4934 2840 
Q 4756 3084 4391 3084 
Q 3944 3084 3684 2787 
Q 3425 2491 3425 1978 
L 3425 0 
L 2847 0 
L 2847 2094 
Q 2847 2600 2669 2842 
Q 2491 3084 2119 3084 
Q 1678 3084 1418 2786 
Q 1159 2488 1159 1978 
L 1159 0 
L 581 0 
L 581 3500 
L 1159 3500 
L 1159 2956 
Q 1356 3278 1631 3431 
Q 1906 3584 2284 3584 
Q 2666 3584 2933 3390 
Q 3200 3197 3328 2828 
z
" transform="scale(0.015625)"/>
       <path id="DejaVuSans-65" d="M 3597 1894 
L 3597 1613 
L 953 1613 
Q 991 1019 1311 708 
Q 1631 397 2203 397 
Q 2534 397 2845 478 
Q 3156 559 3463 722 
L 3463 178 
Q 3153 47 2828 -22 
Q 2503 -91 2169 -91 
Q 1331 -91 842 396 
Q 353 884 353 1716 
Q 353 2575 817 3079 
Q 1281 3584 2069 3584 
Q 2775 3584 3186 3129 
Q 3597 2675 3597 1894 
z
M 3022 2063 
Q 3016 2534 2758 2815 
Q 2500 3097 2075 3097 
Q 1594 3097 1305 2825 
Q 1016 2553 972 2059 
L 3022 2063 
z
" transform="scale(0.015625)"/>
      </defs>
      <use xlink:href="#DejaVuSans-20"/>
      <use xlink:href="#DejaVuSans-74" x="31.787109"/>
      <use xlink:href="#DejaVuSans-69" x="70.996094"/>
      <use xlink:href="#DejaVuSans-6d" x="98.779297"/>
      <use xlink:href="#DejaVuSans-65" x="196.191406"/>
     </g>
    </g>
    <g id="text_10">
     <!-- 1e7 -->
     <g transform="translate(395.841875 334.860562) scale(0.1 -0.1)">
      <defs>
       <path id="DejaVuSans-37" d="M 525 4666 
L 3525 4666 
L 3525 4397 
L 1831 0 
L 1172 0 
L 2766 4134 
L 525 4134 
L 525 4666 
z
" transform="scale(0.015625)"/>
      </defs>
      <use xlink:href="#DejaVuSans-31"/>
      <use xlink:href="#DejaVuSans-65" x="63.623047"/>
      <use xlink:href="#DejaVuSans-37" x="125.146484"/>
     </g>
    </g>
   </g>
   <g id="matplotlib.axis_2">
    <g id="ytick_1">
     <g id="line2d_9">
      <defs>
       <path id="ma9ca675dc1" d="M 0 0 
L -3.5 0 
" style="stroke: #000000; stroke-width: 0.8"/>
      </defs>
      <g>
       <use xlink:href="#ma9ca675dc1" x="57.6" y="295.488" style="stroke: #000000; stroke-width: 0.8"/>
      </g>
     </g>
     <g id="text_11">
      <!-- 0 -->
      <g transform="translate(44.2375 299.287219) scale(0.1 -0.1)">
       <use xlink:href="#DejaVuSans-30"/>
      </g>
     </g>
    </g>
    <g id="ytick_2">
     <g id="line2d_10">
      <g>
       <use xlink:href="#ma9ca675dc1" x="57.6" y="265.248" style="stroke: #000000; stroke-width: 0.8"/>
      </g>
     </g>
     <g id="text_12">
      <!-- 250 -->
      <g transform="translate(31.5125 269.047219) scale(0.1 -0.1)">
       <use xlink:href="#DejaVuSans-32"/>
       <use xlink:href="#DejaVuSans-35" x="63.623047"/>
       <use xlink:href="#DejaVuSans-30" x="127.246094"/>
      </g>
     </g>
    </g>
    <g id="ytick_3">
     <g id="line2d_11">
      <g>
       <use xlink:href="#ma9ca675dc1" x="57.6" y="235.008" style="stroke: #000000; stroke-width: 0.8"/>
      </g>
     </g>
     <g id="text_13">
      <!-- 500 -->
      <g transform="translate(31.5125 238.807219) scale(0.1 -0.1)">
       <use xlink:href="#DejaVuSans-35"/>
       <use xlink:href="#DejaVuSans-30" x="63.623047"/>
       <use xlink:href="#DejaVuSans-30" x="127.246094"/>
      </g>
     </g>
    </g>
    <g id="ytick_4">
     <g id="line2d_12">
      <g>
       <use xlink:href="#ma9ca675dc1" x="57.6" y="204.768" style="stroke: #000000; stroke-width: 0.8"/>
      </g>
     </g>
     <g id="text_14">
      <!-- 750 -->
      <g transform="translate(31.5125 208.567219) scale(0.1 -0.1)">
       <use xlink:href="#DejaVuSans-37"/>
       <use xlink:href="#DejaVuSans-35" x="63.623047"/>
       <use xlink:href="#DejaVuSans-30" x="127.246094"/>
      </g>
     </g>
    </g>
    <g id="ytick_5">
     <g id="line2d_13">
      <g>
       <use xlink:href="#ma9ca675dc1" x="57.6" y="174.528" style="stroke: #000000; stroke-width: 0.8"/>
      </g>
     </g>
     <g id="text_15">
      <!-- 1000 -->
      <g transform="translate(25.15 178.327219) scale(0.1 -0.1)">
       <use xlink:href="#DejaVuSans-31"/>
       <use xlink:href="#DejaVuSans-30" x="63.623047"/>
       <use xlink:href="#DejaVuSans-30" x="127.246094"/>
       <use xlink:href="#DejaVuSans-30" x="190.869141"/>
      </g>
     </g>
    </g>
    <g id="ytick_6">
     <g id="line2d_14">
      <g>
       <use xlink:href="#ma9ca675dc1" x="57.6" y="144.288" style="stroke: #000000; stroke-width: 0.8"/>
      </g>
     </g>
     <g id="text_16">
      <!-- 1250 -->
      <g transform="translate(25.15 148.087219) scale(0.1 -0.1)">
       <use xlink:href="#DejaVuSans-31"/>
       <use xlink:href="#DejaVuSans-32" x="63.623047"/>
       <use xlink:href="#DejaVuSans-35" x="127.246094"/>
       <use xlink:href="#DejaVuSans-30" x="190.869141"/>
      </g>
     </g>
    </g>
    <g id="ytick_7">
     <g id="line2d_15">
      <g>
       <use xlink:href="#ma9ca675dc1" x="57.6" y="114.048" style="stroke: #000000; stroke-width: 0.8"/>
      </g>
     </g>
     <g id="text_17">
      <!-- 1500 -->
      <g transform="translate(25.15 117.847219) scale(0.1 -0.1)">
       <use xlink:href="#DejaVuSans-31"/>
       <use xlink:href="#DejaVuSans-35" x="63.623047"/>
       <use xlink:href="#DejaVuSans-30" x="127.246094"/>
       <use xlink:href="#DejaVuSans-30" x="190.869141"/>
      </g>
     </g>
    </g>
    <g id="ytick_8">
     <g id="line2d_16">
      <g>
       <use xlink:href="#ma9ca675dc1" x="57.6" y="83.808" style="stroke: #000000; stroke-width: 0.8"/>
      </g>
     </g>
     <g id="text_18">
      <!-- 1750 -->
      <g transform="translate(25.15 87.607219) scale(0.1 -0.1)">
       <use xlink:href="#DejaVuSans-31"/>
       <use xlink:href="#DejaVuSans-37" x="63.623047"/>
       <use xlink:href="#DejaVuSans-35" x="127.246094"/>
       <use xlink:href="#DejaVuSans-30" x="190.869141"/>
      </g>
     </g>
    </g>
    <g id="ytick_9">
     <g id="line2d_17">
      <g>
       <use xlink:href="#ma9ca675dc1" x="57.6" y="53.568" style="stroke: #000000; stroke-width: 0.8"/>
      </g>
     </g>
     <g id="text_19">
      <!-- 2000 -->
      <g transform="translate(25.15 57.367219) scale(0.1 -0.1)">
       <use xlink:href="#DejaVuSans-32"/>
       <use xlink:href="#DejaVuSans-30" x="63.623047"/>
       <use xlink:href="#DejaVuSans-30" x="127.246094"/>
       <use xlink:href="#DejaVuSans-30" x="190.869141"/>
      </g>
     </g>
    </g>
   </g>
   <g id="line2d_18">
    <path d="M 73.832727 291.8592 
L 75.780682 291.8592 
L 75.785191 291.98016 
L 75.888901 291.8592 
L 76.614875 291.8592 
L 76.619384 291.98016 
L 76.723095 291.8592 
L 80.84897 291.8592 
L 80.853479 291.98016 
L 80.95719 291.8592 
L 84.10007 291.8592 
L 84.104579 291.98016 
L 84.20829 291.8592 
L 88.884282 291.8592 
L 88.888791 291.98016 
L 88.992501 291.8592 
L 89.583201 291.8592 
L 89.58771 291.98016 
L 89.69142 291.8592 
L 91.07573 291.8592 
L 91.08024 291.98016 
L 91.18395 291.8592 
L 92.717062 291.8592 
L 92.721571 291.98016 
L 92.825282 291.8592 
L 95.043786 291.8592 
L 95.048295 291.98016 
L 95.152005 291.8592 
L 98.060409 291.8592 
L 98.105501 291.98016 
L 98.168629 291.8592 
L 98.993804 291.8592 
L 98.998313 291.98016 
L 99.102024 291.8592 
L 99.620576 291.8592 
L 99.625085 291.98016 
L 99.728796 291.8592 
L 101.104088 291.8592 
L 101.108597 291.98016 
L 101.212308 291.8592 
L 103.759979 291.8592 
L 103.764488 291.98016 
L 103.868199 291.8592 
L 109.549732 291.8592 
L 109.554242 291.98016 
L 109.657952 291.8592 
L 110.005157 291.8592 
L 110.009666 291.98016 
L 110.113377 291.8592 
L 113.720699 291.8592 
L 113.725209 291.98016 
L 113.828919 291.8592 
L 118.270435 291.8592 
L 118.274945 291.98016 
L 118.378655 291.8592 
L 119.672782 291.8592 
L 119.677291 291.98016 
L 119.781002 291.8592 
L 121.201385 291.8592 
L 121.205894 291.98016 
L 121.309605 291.8592 
L 121.544081 291.8592 
L 121.54859 291.98016 
L 121.652301 291.8592 
L 124.989074 291.8592 
L 124.993583 291.98016 
L 125.097294 291.8592 
L 128.190573 291.8592 
L 128.195082 291.98016 
L 128.298793 291.8592 
L 132.898129 291.8592 
L 132.902639 291.98016 
L 133.006349 291.8592 
L 150.840051 291.8592 
L 150.844561 291.98016 
L 150.948271 291.8592 
L 152.404728 291.8592 
L 152.409237 291.98016 
L 152.512947 291.8592 
L 160.246146 291.8592 
L 160.250655 291.98016 
L 160.354365 291.8592 
L 161.206595 291.8592 
L 161.211104 291.98016 
L 161.314815 291.8592 
L 163.903069 291.8592 
L 163.907578 291.98016 
L 164.011289 291.8592 
L 166.270375 291.8592 
L 166.274884 291.98016 
L 166.378594 291.8592 
L 167.316498 291.8592 
L 167.321008 291.98016 
L 167.424718 291.8592 
L 169.801042 291.8592 
L 169.805551 291.98016 
L 169.909262 291.8592 
L 170.391741 291.8592 
L 170.39625 291.98016 
L 170.499961 291.8592 
L 176.339315 291.8592 
L 176.343824 291.98016 
L 176.447534 291.8592 
L 177.940064 291.8592 
L 177.944573 291.98016 
L 178.048284 291.8592 
L 181.119017 291.8592 
L 181.123527 291.98016 
L 181.227237 291.8592 
L 181.488768 291.8592 
L 181.493277 291.98016 
L 181.596988 291.8592 
L 183.28792 291.8592 
L 183.292429 291.98016 
L 183.39614 291.8592 
L 192.657941 291.8592 
L 192.66245 291.98016 
L 192.766161 291.8592 
L 197.338443 291.8592 
L 197.342952 291.98016 
L 197.446662 291.8592 
L 200.589542 291.8592 
L 200.594051 291.98016 
L 200.697762 291.8592 
L 207.389346 291.8592 
L 207.393855 291.98016 
L 207.497566 291.8592 
L 213.769798 291.8592 
L 213.774307 291.98016 
L 213.878018 291.8592 
L 215.67717 291.8592 
L 215.681679 291.98016 
L 215.78539 291.8592 
L 216.385107 291.8592 
L 216.389616 291.98016 
L 216.493327 291.8592 
L 229.772784 291.8592 
L 229.777293 291.98016 
L 229.881004 291.8592 
L 234.777944 291.8592 
L 234.782454 291.98016 
L 234.886164 291.8592 
L 239.00753 291.8592 
L 239.01204 291.98016 
L 239.11575 291.8592 
L 248.318933 291.8592 
L 248.323442 291.98016 
L 248.427152 291.8592 
L 251.497886 291.8592 
L 251.502395 291.98016 
L 251.606105 291.8592 
L 255.443395 291.8592 
L 255.447904 291.98016 
L 255.551615 291.8592 
L 261.341368 291.8592 
L 261.345877 291.98016 
L 261.449588 291.8592 
L 262.049305 291.8592 
L 262.053814 291.98016 
L 262.157525 291.8592 
L 265.124548 291.8592 
L 265.129057 291.98016 
L 265.232767 291.8592 
L 276.217065 291.8592 
L 276.221575 291.98016 
L 276.325285 291.8592 
L 277.448064 291.8592 
L 277.452574 291.98016 
L 277.556284 291.8592 
L 283.900663 291.8592 
L 283.905172 291.98016 
L 284.008883 291.8592 
L 289.658852 291.8592 
L 289.663361 291.98016 
L 289.767072 291.8592 
L 292.481582 291.8592 
L 292.486091 291.98016 
L 292.589802 291.8592 
L 299.6827 291.8592 
L 299.68721 291.98016 
L 299.79092 291.8592 
L 300.494348 291.8592 
L 300.498857 291.98016 
L 300.602568 291.8592 
L 301.54949 291.8592 
L 301.553999 291.98016 
L 301.65771 291.8592 
L 303.15024 291.8592 
L 303.154749 291.98016 
L 303.258459 291.8592 
L 303.601155 291.8592 
L 303.605664 291.98016 
L 303.709375 291.8592 
L 306.599742 291.8592 
L 306.604251 291.98016 
L 306.707962 291.8592 
L 311.916034 291.8592 
L 311.920543 291.98016 
L 312.024254 291.8592 
L 312.213638 291.8592 
L 312.218147 291.98016 
L 312.321858 291.8592 
L 317.092542 291.8592 
L 317.097051 291.98016 
L 317.200762 291.8592 
L 318.688783 291.8592 
L 318.693292 291.98016 
L 318.797002 291.8592 
L 321.281546 291.8592 
L 321.286055 291.98016 
L 321.389766 291.8592 
L 322.11123 291.8592 
L 322.115739 291.98016 
L 322.21945 291.8592 
L 325.04218 291.8592 
L 325.046689 291.98016 
L 325.1504 291.8592 
L 329.488205 291.8592 
L 329.492714 291.98016 
L 329.596425 291.8592 
L 332.229771 291.8592 
L 332.23428 291.98016 
L 332.33799 291.8592 
L 339.895332 291.8592 
L 339.899841 291.98016 
L 340.003551 291.8592 
L 342.745117 291.8592 
L 342.749626 291.98016 
L 342.853336 291.8592 
L 356.430398 291.8592 
L 356.434907 291.98016 
L 356.538617 291.8592 
L 357.363792 291.8592 
L 357.368302 291.98016 
L 357.472012 291.8592 
L 359.302728 291.8592 
L 359.307238 291.98016 
L 359.410948 291.8592 
L 359.658952 291.8592 
L 359.663461 291.98016 
L 359.767171 291.8592 
L 362.098404 291.8592 
L 362.102913 291.98016 
L 362.206623 291.8592 
L 369.069555 291.8592 
L 369.074064 291.98016 
L 369.177775 291.8592 
L 372.740006 291.8592 
L 372.744515 291.98016 
L 372.848226 291.8592 
L 376.726098 291.8592 
L 376.730607 291.98016 
L 376.834317 291.8592 
L 377.72713 291.8592 
L 377.731639 291.98016 
L 377.83535 291.8592 
L 380.410076 291.8592 
L 380.414585 291.98016 
L 380.518296 291.8592 
L 382.073954 291.8592 
L 382.078463 291.98016 
L 382.182174 291.8592 
L 383.611575 291.8592 
L 383.616084 291.98016 
L 383.719795 291.8592 
L 384.094055 291.8592 
L 384.098564 291.98016 
L 384.202274 291.8592 
L 384.648681 291.8592 
L 384.65319 291.98016 
L 384.7569 291.8592 
L 389.455438 291.8592 
L 389.459947 291.98016 
L 389.563658 291.8592 
L 398.487273 291.8592 
L 398.487273 291.8592 
" clip-path="url(#pd57cd7b76b)" style="fill: none; stroke: #1f77b4; stroke-width: 1.5; stroke-linecap: square"/>
   </g>
   <g id="line2d_19">
    <path d="M 73.832727 289.44 
L 114.4106 289.44 
L 114.415109 289.56096 
L 114.51882 289.44 
L 237.970425 289.44 
L 237.974934 289.56096 
L 238.078645 289.44 
L 238.1057 289.44 
L 238.110209 289.56096 
L 238.213919 289.44 
L 246.876003 289.44 
L 246.880513 289.56096 
L 246.984223 289.44 
L 309.986116 289.44 
L 309.990625 289.56096 
L 310.094336 289.44 
L 316.772392 289.44 
L 316.776901 289.56096 
L 316.880612 289.44 
L 337.041037 289.44 
L 337.045547 289.56096 
L 337.149257 289.44 
L 348.665635 289.44 
L 348.670144 289.56096 
L 348.773855 289.44 
L 351.673241 289.44 
L 351.67775 289.56096 
L 351.78146 289.44 
L 367.044945 289.44 
L 367.049454 289.56096 
L 367.153165 289.44 
L 373.700456 289.44 
L 373.709474 289.56096 
L 373.808675 289.44 
L 377.88495 289.44 
L 377.889459 289.56096 
L 377.99317 289.44 
L 387.84567 289.44 
L 387.85018 289.56096 
L 387.95389 289.44 
L 394.645474 289.44 
L 394.649983 289.56096 
L 394.753694 289.44 
L 398.487273 289.44 
L 398.487273 289.44 
" clip-path="url(#pd57cd7b76b)" style="fill: none; stroke: #ff7f0e; stroke-width: 1.5; stroke-linecap: square"/>
   </g>
   <g id="line2d_20">
    <path d="M 73.832727 53.568 
L 73.945456 53.68896 
L 74.19346 53.68896 
L 74.315207 54.05184 
L 74.360298 54.05184 
L 74.473027 54.1728 
L 75.618352 54.1728 
L 75.73559 54.41472 
L 75.780682 54.41472 
L 75.89341 54.53568 
L 76.614875 54.53568 
L 76.732113 54.7776 
L 77.552779 54.7776 
L 77.670017 55.01952 
L 78.166024 55.01952 
L 78.278753 55.14048 
L 79.703645 55.14048 
L 79.816374 55.26144 
L 80.059868 55.26144 
L 80.172597 55.3824 
L 80.609985 55.3824 
L 80.722714 55.50336 
L 80.84897 55.50336 
L 80.961699 55.62432 
L 81.024827 55.62432 
L 81.137556 55.74528 
L 81.462215 55.74528 
L 81.574944 55.86624 
L 82.521866 55.86624 
L 82.634595 55.9872 
L 83.586026 55.9872 
L 83.703264 56.22912 
L 84.10007 56.22912 
L 84.212799 56.35008 
L 84.884663 56.35008 
L 84.997391 56.47104 
L 85.353615 56.47104 
L 85.466343 56.592 
L 88.884282 56.592 
L 88.997011 56.71296 
L 89.00152 56.71296 
L 89.114249 56.83392 
L 89.583201 56.83392 
L 89.695929 56.95488 
L 90.935947 56.95488 
L 91.048675 57.07584 
L 91.07573 57.07584 
L 91.08024 57.1968 
L 91.18395 57.07584 
L 92.342803 57.07584 
L 92.455531 57.1968 
L 92.717062 57.1968 
L 92.829791 57.31776 
L 93.758677 57.31776 
L 93.871406 57.43872 
L 93.975116 57.43872 
L 94.087845 57.55968 
L 95.043786 57.55968 
L 95.156514 57.68064 
L 95.210624 57.68064 
L 95.323353 57.8016 
L 95.66154 57.8016 
L 95.774268 57.92256 
L 97.163088 57.92256 
L 97.275817 58.04352 
L 97.280326 58.04352 
L 97.393054 58.16448 
L 97.420109 58.16448 
L 97.532838 58.28544 
L 98.060409 58.28544 
L 98.105501 58.52736 
L 98.173138 58.4064 
L 98.993804 58.4064 
L 98.998313 58.52736 
L 99.102024 58.4064 
L 99.620576 58.4064 
L 99.625085 58.52736 
L 99.728796 58.4064 
L 100.499861 58.4064 
L 100.61259 58.52736 
L 101.104088 58.52736 
L 101.216817 58.64832 
L 101.302491 58.64832 
L 101.419729 58.89024 
L 102.186285 58.89024 
L 102.299014 59.0112 
L 103.390229 59.0112 
L 103.507467 59.25312 
L 103.620196 59.25312 
L 103.732924 59.37408 
L 103.759979 59.37408 
L 103.872708 59.49504 
L 104.346169 59.49504 
L 104.463407 59.73696 
L 104.860213 59.73696 
L 104.972942 59.85792 
L 105.03607 59.85792 
L 105.148799 59.97888 
L 106.690929 59.97888 
L 106.803658 60.09984 
L 108.859832 60.09984 
L 108.972561 60.2208 
L 109.319766 60.2208 
L 109.432494 60.34176 
L 109.549732 60.34176 
L 109.662461 60.46272 
L 109.842827 60.46272 
L 109.955556 60.58368 
L 110.005157 60.58368 
L 110.117886 60.70464 
L 110.582329 60.70464 
L 110.704076 61.06752 
L 111.998203 61.06752 
L 112.110932 61.18848 
L 113.008253 61.18848 
L 113.120982 61.30944 
L 113.409568 61.30944 
L 113.522297 61.4304 
L 113.720699 61.4304 
L 113.833428 61.55136 
L 113.842447 61.55136 
L 113.959685 61.79328 
L 114.500783 61.79328 
L 114.613512 61.91424 
L 115.023845 61.91424 
L 115.136574 62.0352 
L 115.31694 62.0352 
L 115.429669 62.15616 
L 115.492797 62.15616 
L 115.610035 62.39808 
L 115.916657 62.39808 
L 116.029386 62.51904 
L 116.678704 62.51904 
L 116.791433 62.64 
L 117.170202 62.64 
L 117.282931 62.76096 
L 118.270435 62.76096 
L 118.387673 63.00288 
L 119.57809 63.00288 
L 119.695328 63.2448 
L 121.201385 63.2448 
L 121.314114 63.36576 
L 121.323132 63.36576 
L 121.435861 63.48672 
L 121.544081 63.48672 
L 121.65681 63.60768 
L 123.68142 63.60768 
L 123.794148 63.72864 
L 124.989074 63.72864 
L 125.101803 63.8496 
L 125.264133 63.8496 
L 125.376861 63.97056 
L 128.190573 63.97056 
L 128.303302 64.09152 
L 128.447595 64.09152 
L 128.560324 64.21248 
L 128.74069 64.21248 
L 128.853419 64.33344 
L 129.624484 64.33344 
L 129.737213 64.4544 
L 130.427113 64.4544 
L 130.539842 64.57536 
L 132.072954 64.57536 
L 132.185683 64.69632 
L 132.541906 64.69632 
L 132.659144 64.93824 
L 132.898129 64.93824 
L 133.010858 65.0592 
L 133.317481 65.0592 
L 133.43021 65.18016 
L 134.241857 65.18016 
L 134.354586 65.30112 
L 134.408696 65.30112 
L 134.521425 65.42208 
L 135.603622 65.42208 
L 135.72086 65.664 
L 137.483939 65.664 
L 137.601177 65.90592 
L 138.349696 65.90592 
L 138.462425 66.02688 
L 138.484971 66.02688 
L 138.602209 66.2688 
L 138.642791 66.2688 
L 138.75552 66.38976 
L 139.440911 66.38976 
L 139.55364 66.51072 
L 140.279614 66.51072 
L 140.392343 66.63168 
L 140.523108 66.63168 
L 140.635837 66.75264 
L 140.870313 66.75264 
L 140.983042 66.8736 
L 141.492576 66.8736 
L 141.605305 66.99456 
L 142.425971 66.99456 
L 142.5387 67.11552 
L 144.125922 67.11552 
L 144.238651 67.23648 
L 144.969133 67.23648 
L 145.081862 67.35744 
L 146.998253 67.35744 
L 147.115491 67.59936 
L 147.219201 67.59936 
L 147.33193 67.72032 
L 148.098486 67.72032 
L 148.211215 67.84128 
L 149.207738 67.84128 
L 149.320467 67.96224 
L 150.515392 67.96224 
L 150.628121 68.0832 
L 150.682231 68.0832 
L 150.799469 68.32512 
L 150.840051 68.32512 
L 150.95278 68.44608 
L 152.404728 68.44608 
L 152.517456 68.56704 
L 153.608672 68.56704 
L 153.7214 68.688 
L 154.212898 68.688 
L 154.325627 68.80896 
L 156.102234 68.80896 
L 156.214962 68.92992 
L 158.126843 68.92992 
L 158.239572 69.05088 
L 158.483067 69.05088 
L 158.595795 69.17184 
L 159.759157 69.17184 
L 159.871886 69.2928 
L 160.246146 69.2928 
L 160.363384 69.53472 
L 160.895464 69.53472 
L 161.008193 69.65568 
L 161.206595 69.65568 
L 161.319324 69.77664 
L 163.903069 69.77664 
L 164.015798 69.8976 
L 164.317911 69.8976 
L 164.43064 70.01856 
L 164.692171 70.01856 
L 164.8049 70.13952 
L 164.813918 70.13952 
L 164.926647 70.26048 
L 165.111522 70.26048 
L 165.224251 70.38144 
L 165.332471 70.38144 
L 165.4452 70.5024 
L 165.769859 70.5024 
L 165.882588 70.62336 
L 166.261356 70.62336 
L 166.383104 70.98624 
L 166.495832 70.98624 
L 166.608561 71.1072 
L 166.640125 71.1072 
L 166.752854 71.22816 
L 167.316498 71.22816 
L 167.429227 71.34912 
L 168.240875 71.34912 
L 168.358113 71.59104 
L 169.801042 71.59104 
L 169.913771 71.712 
L 170.391741 71.712 
L 170.50447 71.83296 
L 170.657781 71.83296 
L 170.77051 71.95392 
L 171.122224 71.95392 
L 171.234953 72.07488 
L 171.455901 72.07488 
L 171.56863 72.19584 
L 171.762524 72.19584 
L 171.875253 72.3168 
L 172.132274 72.3168 
L 172.245003 72.43776 
L 174.34176 72.43776 
L 174.454488 72.55872 
L 176.339315 72.55872 
L 176.343824 72.67968 
L 176.447534 72.55872 
L 177.940064 72.55872 
L 178.057302 72.80064 
L 178.508217 72.80064 
L 178.620946 72.9216 
L 181.119017 72.9216 
L 181.231746 73.04256 
L 181.488768 73.04256 
L 181.601497 73.16352 
L 182.074958 73.16352 
L 182.187687 73.28448 
L 182.309434 73.28448 
L 182.422163 73.40544 
L 182.80995 73.40544 
L 182.922679 73.5264 
L 183.28792 73.5264 
L 183.400649 73.64736 
L 184.122114 73.64736 
L 184.234842 73.76832 
L 184.798487 73.76832 
L 184.911215 73.88928 
L 185.348603 73.88928 
L 185.465841 74.1312 
L 187.062082 74.1312 
L 187.174811 74.25216 
L 190.286126 74.25216 
L 190.407874 74.61504 
L 190.624313 74.61504 
L 190.737042 74.736 
L 192.265645 74.736 
L 192.378374 74.85696 
L 192.657941 74.85696 
L 192.77067 74.97792 
L 193.30275 74.97792 
L 193.415479 75.09888 
L 193.789739 75.09888 
L 193.902468 75.21984 
L 194.461603 75.21984 
L 194.574332 75.3408 
L 195.250705 75.3408 
L 195.363433 75.46176 
L 197.288842 75.46176 
L 197.40608 75.70368 
L 198.181654 75.70368 
L 198.294383 75.82464 
L 198.31242 75.82464 
L 198.425149 75.9456 
L 200.589542 75.9456 
L 200.702271 76.06656 
L 200.70678 76.06656 
L 200.819509 76.18752 
L 201.374135 76.18752 
L 201.486864 76.30848 
L 201.644684 76.30848 
L 201.757413 76.42944 
L 201.915233 76.42944 
L 202.027962 76.5504 
L 202.176764 76.5504 
L 202.289493 76.67136 
L 202.560042 76.67136 
L 202.672771 76.79232 
L 204.638762 76.79232 
L 204.751491 76.91328 
L 206.280094 76.91328 
L 206.392823 77.03424 
L 207.389346 77.03424 
L 207.502075 77.1552 
L 207.605785 77.1552 
L 207.718514 77.27616 
L 207.817715 77.27616 
L 207.930444 77.39712 
L 208.516634 77.39712 
L 208.629363 77.51808 
L 210.311277 77.51808 
L 210.424006 77.63904 
L 211.352892 77.63904 
L 211.47013 77.88096 
L 213.427102 77.88096 
L 213.539831 78.00192 
L 213.562377 78.00192 
L 213.675106 78.12288 
L 213.769798 78.12288 
L 213.887036 78.3648 
L 214.342461 78.3648 
L 214.455189 78.48576 
L 215.018834 78.48576 
L 215.131562 78.60672 
L 215.67717 78.60672 
L 215.789899 78.72768 
L 216.10103 78.72768 
L 216.213759 78.84864 
L 216.385107 78.84864 
L 216.497836 78.9696 
L 217.841564 78.9696 
L 217.954293 79.09056 
L 218.472845 79.09056 
L 218.594592 79.45344 
L 219.252929 79.45344 
L 219.365658 79.5744 
L 220.488437 79.5744 
L 220.601166 79.69536 
L 221.300085 79.69536 
L 221.412813 79.81632 
L 221.615725 79.81632 
L 221.728454 79.93728 
L 222.576175 79.93728 
L 222.688904 80.05824 
L 223.202947 80.05824 
L 223.315676 80.1792 
L 225.894912 80.1792 
L 226.007641 80.30016 
L 226.147425 80.30016 
L 226.264663 80.54208 
L 226.729105 80.54208 
L 226.841834 80.66304 
L 227.198057 80.66304 
L 227.310786 80.784 
L 228.117925 80.784 
L 228.230654 80.90496 
L 229.200122 80.90496 
L 229.31285 81.02592 
L 229.344414 81.02592 
L 229.457143 81.14688 
L 229.772784 81.14688 
L 229.885513 81.26784 
L 231.860522 81.26784 
L 231.973251 81.3888 
L 232.009324 81.3888 
L 232.122053 81.50976 
L 232.902137 81.50976 
L 233.014865 81.63072 
L 233.114067 81.63072 
L 233.226796 81.75168 
L 234.777944 81.75168 
L 234.782454 81.87264 
L 234.886164 81.75168 
L 236.054035 81.75168 
L 236.166764 81.87264 
L 237.316598 81.87264 
L 237.433836 82.11456 
L 238.416831 82.11456 
L 238.52956 82.23552 
L 239.00753 82.23552 
L 239.120259 82.35648 
L 239.32768 82.35648 
L 239.440409 82.47744 
L 239.931907 82.47744 
L 240.044636 82.5984 
L 244.891976 82.5984 
L 245.004705 82.71936 
L 245.730678 82.71936 
L 245.843407 82.84032 
L 248.318933 82.84032 
L 248.431661 82.96128 
L 250.695256 82.96128 
L 250.812494 83.2032 
L 251.466322 83.2032 
L 251.58356 83.44512 
L 253.702862 83.44512 
L 253.815591 83.56608 
L 253.887737 83.56608 
L 254.000466 83.68704 
L 255.443395 83.68704 
L 255.556124 83.808 
L 256.417372 83.808 
L 256.53461 84.04992 
L 256.665376 84.04992 
L 256.778105 84.17088 
L 256.971998 84.17088 
L 257.089236 84.4128 
L 257.129819 84.4128 
L 257.242547 84.53376 
L 260.087823 84.53376 
L 260.200552 84.65472 
L 260.259171 84.65472 
L 260.376409 84.89664 
L 261.341368 84.89664 
L 261.454097 85.0176 
L 261.54428 85.0176 
L 261.657009 85.13856 
L 262.049305 85.13856 
L 262.162034 85.25952 
L 262.211635 85.25952 
L 262.324363 85.38048 
L 262.9827 85.38048 
L 263.099938 85.6224 
L 263.72671 85.6224 
L 263.839439 85.74336 
L 263.99275 85.74336 
L 264.105479 85.86432 
L 265.124548 85.86432 
L 265.241786 86.10624 
L 266.292419 86.10624 
L 266.405147 86.2272 
L 268.172736 86.2272 
L 268.285464 86.34816 
L 269.719375 86.34816 
L 269.832104 86.46912 
L 270.503968 86.46912 
L 270.621206 86.71104 
L 270.747462 86.71104 
L 270.860191 86.832 
L 272.695417 86.832 
L 272.808145 86.95296 
L 273.894851 86.95296 
L 274.00758 87.07392 
L 276.217065 87.07392 
L 276.329794 87.19488 
L 277.042241 87.19488 
L 277.154969 87.31584 
L 277.348863 87.31584 
L 277.466101 87.55776 
L 277.980144 87.55776 
L 278.092873 87.67872 
L 279.878498 87.67872 
L 279.995736 87.92064 
L 280.951677 87.92064 
L 281.064405 88.0416 
L 283.427202 88.0416 
L 283.54444 88.28352 
L 283.900663 88.28352 
L 284.013392 88.40448 
L 284.973842 88.40448 
L 285.09108 88.6464 
L 285.848617 88.6464 
L 285.961346 88.76736 
L 287.124708 88.76736 
L 287.237437 88.88832 
L 287.417803 88.88832 
L 287.530532 89.00928 
L 289.658852 89.00928 
L 289.771581 89.13024 
L 290.795159 89.13024 
L 290.907888 89.2512 
L 291.210001 89.2512 
L 291.32273 89.37216 
L 292.481582 89.37216 
L 292.594311 89.49312 
L 292.851333 89.49312 
L 292.964062 89.61408 
L 293.360867 89.61408 
L 293.473596 89.73504 
L 294.217606 89.73504 
L 294.330335 89.856 
L 294.506192 89.856 
L 294.618921 89.97696 
L 295.344895 89.97696 
L 295.457624 90.09792 
L 295.466642 90.09792 
L 295.579371 90.21888 
L 295.800319 90.21888 
L 295.913048 90.33984 
L 297.157574 90.33984 
L 297.270303 90.4608 
L 297.39656 90.4608 
L 297.509288 90.58176 
L 298.83047 90.58176 
L 298.943199 90.70272 
L 299.6827 90.70272 
L 299.795429 90.82368 
L 300.494348 90.82368 
L 300.498857 90.94464 
L 300.602568 90.82368 
L 300.715297 90.82368 
L 300.828025 90.94464 
L 301.01741 90.94464 
L 301.130139 91.0656 
L 301.54949 91.0656 
L 301.662219 91.18656 
L 303.14573 91.18656 
L 303.262968 91.42848 
L 303.578609 91.42848 
L 303.695847 91.6704 
L 305.981988 91.6704 
L 306.094717 91.79136 
L 306.311156 91.79136 
L 306.423885 91.91232 
L 306.599742 91.91232 
L 306.712471 92.03328 
L 306.8748 92.03328 
L 306.987529 92.15424 
L 307.497064 92.15424 
L 307.609792 92.2752 
L 308.344784 92.2752 
L 308.457513 92.39616 
L 310.694053 92.39616 
L 310.806782 92.51712 
L 311.289262 92.51712 
L 311.40199 92.63808 
L 311.916034 92.63808 
L 312.028763 92.75904 
L 312.213638 92.75904 
L 312.218147 92.88 
L 312.321858 92.75904 
L 313.065868 92.75904 
L 313.178597 92.88 
L 314.779346 92.88 
L 314.892075 93.00096 
L 315.257317 93.00096 
L 315.370046 93.12192 
L 316.267367 93.12192 
L 316.380096 93.24288 
L 317.092542 93.24288 
L 317.205271 93.36384 
L 318.404706 93.36384 
L 318.517435 93.4848 
L 318.688783 93.4848 
L 318.801511 93.60576 
L 319.423775 93.60576 
L 319.536503 93.72672 
L 319.829598 93.72672 
L 319.942327 93.84768 
L 320.641246 93.84768 
L 320.753975 93.96864 
L 321.281546 93.96864 
L 321.394275 94.0896 
L 321.74148 94.0896 
L 321.854208 94.21056 
L 322.11123 94.21056 
L 322.223959 94.33152 
L 323.292628 94.33152 
L 323.405357 94.45248 
L 323.477504 94.45248 
L 323.590232 94.57344 
L 323.914892 94.57344 
L 324.03213 94.81536 
L 324.424426 94.81536 
L 324.537155 94.93632 
L 324.951997 94.93632 
L 325.069235 95.17824 
L 325.547205 95.17824 
L 325.659934 95.2992 
L 326.80075 95.2992 
L 326.913479 95.42016 
L 327.900983 95.42016 
L 328.013712 95.54112 
L 328.581865 95.54112 
L 328.699103 95.78304 
L 329.488205 95.78304 
L 329.600934 95.904 
L 329.682099 95.904 
L 329.794828 96.02496 
L 330.241234 96.02496 
L 330.353963 96.14592 
L 332.229771 96.14592 
L 332.3425 96.26688 
L 332.613049 96.26688 
L 332.725778 96.38784 
L 333.339022 96.38784 
L 333.451751 96.5088 
L 335.327559 96.5088 
L 335.440288 96.62976 
L 336.044515 96.62976 
L 336.157243 96.75072 
L 336.824598 96.75072 
L 336.937327 96.87168 
L 337.487444 96.87168 
L 337.600173 96.99264 
L 339.453435 96.99264 
L 339.566163 97.1136 
L 339.895332 97.1136 
L 340.008061 97.23456 
L 341.045166 97.23456 
L 341.157895 97.35552 
L 341.18495 97.35552 
L 341.297678 97.47648 
L 341.640374 97.47648 
L 341.753103 97.59744 
L 342.745117 97.59744 
L 342.857846 97.7184 
L 344.638961 97.7184 
L 344.75169 97.83936 
L 345.022239 97.83936 
L 345.134968 97.96032 
L 350.162674 97.96032 
L 350.275403 98.08128 
L 350.645154 98.08128 
L 350.757883 98.20224 
L 350.798465 98.20224 
L 350.911194 98.3232 
L 351.005886 98.3232 
L 351.118615 98.44416 
L 351.429746 98.44416 
L 351.542475 98.56512 
L 351.921244 98.56512 
L 352.033973 98.68608 
L 352.399214 98.68608 
L 352.511943 98.80704 
L 354.44637 98.80704 
L 354.563608 99.04896 
L 354.595172 99.04896 
L 354.707901 99.16992 
L 356.155339 99.16992 
L 356.268068 99.29088 
L 356.430398 99.29088 
L 356.543127 99.41184 
L 357.012079 99.41184 
L 357.124807 99.5328 
L 357.228518 99.5328 
L 357.341247 99.65376 
L 357.363792 99.65376 
L 357.476521 99.77472 
L 358.824758 99.77472 
L 358.937487 99.89568 
L 359.226073 99.89568 
L 359.343311 100.1376 
L 359.55975 100.1376 
L 359.676988 100.37952 
L 361.413012 100.37952 
L 361.534759 100.7424 
L 362.098404 100.7424 
L 362.211133 100.86336 
L 365.335976 100.86336 
L 365.448705 100.98432 
L 366.959271 100.98432 
L 367.072 101.10528 
L 367.558989 101.10528 
L 367.671717 101.22624 
L 368.339072 101.22624 
L 368.451801 101.3472 
L 369.069555 101.3472 
L 369.182284 101.46816 
L 369.903748 101.46816 
L 370.020986 101.71008 
L 371.432352 101.71008 
L 371.54508 101.83104 
L 372.740006 101.83104 
L 372.857244 102.07296 
L 375.936996 102.07296 
L 376.049725 102.19392 
L 376.144417 102.19392 
L 376.257146 102.31488 
L 376.726098 102.31488 
L 376.838827 102.43584 
L 376.883918 102.43584 
L 376.996647 102.5568 
L 377.72713 102.5568 
L 377.844368 102.79872 
L 378.800308 102.79872 
L 378.913037 102.91968 
L 379.5353 102.91968 
L 379.648029 103.04064 
L 380.004252 103.04064 
L 380.116981 103.1616 
L 380.410076 103.1616 
L 380.527314 103.40352 
L 382.073954 103.40352 
L 382.186683 103.52448 
L 383.133605 103.52448 
L 383.246334 103.64544 
L 383.611575 103.64544 
L 383.616084 103.7664 
L 383.719795 103.64544 
L 384.094055 103.64544 
L 384.211293 103.88736 
L 384.648681 103.88736 
L 384.761409 104.00832 
L 385.270944 104.00832 
L 385.383673 104.12928 
L 385.433273 104.12928 
L 385.546002 104.25024 
L 386.280994 104.25024 
L 386.393723 104.3712 
L 389.455438 104.3712 
L 389.568167 104.49216 
L 389.590713 104.49216 
L 389.703442 104.61312 
L 390.276104 104.61312 
L 390.388833 104.73408 
L 391.655905 104.73408 
L 391.768634 104.85504 
L 392.11133 104.85504 
L 392.224058 104.976 
L 392.927486 104.976 
L 393.040215 105.09696 
L 393.554259 105.09696 
L 393.671497 105.33888 
L 395.060316 105.33888 
L 395.173045 105.45984 
L 395.299301 105.45984 
L 395.41203 105.5808 
L 397.071399 105.5808 
L 397.184127 105.70176 
L 397.774826 105.70176 
L 397.887555 105.82272 
L 398.275343 105.82272 
L 398.388071 105.94368 
L 398.487273 105.94368 
L 398.487273 105.94368 
" clip-path="url(#pd57cd7b76b)" style="fill: none; stroke: #2ca02c; stroke-width: 1.5; stroke-linecap: square"/>
   </g>
   <g id="line2d_21">
    <path d="M 73.832727 295.488 
L 73.945456 295.36704 
L 74.19346 295.36704 
L 74.315207 295.00416 
L 74.360298 295.00416 
L 74.473027 294.8832 
L 75.618352 294.8832 
L 75.73559 294.64128 
L 75.785191 294.64128 
L 75.89792 294.52032 
L 76.619384 294.52032 
L 76.736622 294.2784 
L 77.552779 294.2784 
L 77.670017 294.03648 
L 78.166024 294.03648 
L 78.278753 293.91552 
L 79.703645 293.91552 
L 79.816374 293.79456 
L 80.059868 293.79456 
L 80.172597 293.6736 
L 80.609985 293.6736 
L 80.722714 293.55264 
L 80.853479 293.55264 
L 80.966208 293.43168 
L 81.024827 293.43168 
L 81.137556 293.31072 
L 81.462215 293.31072 
L 81.574944 293.18976 
L 82.521866 293.18976 
L 82.634595 293.0688 
L 83.586026 293.0688 
L 83.703264 292.82688 
L 84.104579 292.82688 
L 84.217308 292.70592 
L 84.884663 292.70592 
L 84.997391 292.58496 
L 85.353615 292.58496 
L 85.466343 292.464 
L 88.888791 292.464 
L 89.006029 292.22208 
L 89.58771 292.22208 
L 89.700439 292.10112 
L 90.935947 292.10112 
L 91.048675 291.98016 
L 92.342803 291.98016 
L 92.455531 291.8592 
L 92.721571 291.8592 
L 92.8343 291.73824 
L 93.758677 291.73824 
L 93.871406 291.61728 
L 93.975116 291.61728 
L 94.087845 291.49632 
L 95.048295 291.49632 
L 95.161023 291.37536 
L 95.210624 291.37536 
L 95.323353 291.2544 
L 95.66154 291.2544 
L 95.774268 291.13344 
L 97.163088 291.13344 
L 97.275817 291.01248 
L 97.280326 291.01248 
L 97.393054 290.89152 
L 97.420109 290.89152 
L 97.532838 290.77056 
L 98.064918 290.77056 
L 98.177647 290.6496 
L 100.499861 290.6496 
L 100.61259 290.52864 
L 101.108597 290.52864 
L 101.221326 290.40768 
L 101.302491 290.40768 
L 101.419729 290.16576 
L 102.186285 290.16576 
L 102.299014 290.0448 
L 103.390229 290.0448 
L 103.507467 289.80288 
L 103.620196 289.80288 
L 103.732924 289.68192 
L 103.764488 289.68192 
L 103.877217 289.56096 
L 104.346169 289.56096 
L 104.463407 289.31904 
L 104.860213 289.31904 
L 104.972942 289.19808 
L 105.03607 289.19808 
L 105.148799 289.07712 
L 106.690929 289.07712 
L 106.803658 288.95616 
L 108.859832 288.95616 
L 108.972561 288.8352 
L 109.058235 288.8352 
L 109.170964 288.95616 
L 109.319766 288.95616 
L 109.432494 288.8352 
L 109.554242 288.8352 
L 109.66697 288.71424 
L 109.842827 288.71424 
L 109.955556 288.59328 
L 110.009666 288.59328 
L 110.122395 288.47232 
L 110.325307 288.47232 
L 110.438036 288.59328 
L 110.582329 288.59328 
L 110.704076 288.2304 
L 111.998203 288.2304 
L 112.110932 288.10944 
L 113.008253 288.10944 
L 113.120982 287.98848 
L 113.409568 287.98848 
L 113.522297 287.86752 
L 113.725209 287.86752 
L 113.837937 287.74656 
L 113.842447 287.74656 
L 113.959685 287.50464 
L 114.4106 287.50464 
L 114.500783 287.6256 
L 114.51882 287.50464 
L 115.023845 287.50464 
L 115.136574 287.38368 
L 115.31694 287.38368 
L 115.429669 287.26272 
L 115.492797 287.26272 
L 115.610035 287.0208 
L 115.916657 287.0208 
L 116.029386 286.89984 
L 116.678704 286.89984 
L 116.791433 286.77888 
L 117.170202 286.77888 
L 117.282931 286.65792 
L 118.274945 286.65792 
L 118.392183 286.416 
L 119.57809 286.416 
L 119.695328 286.17408 
L 121.205894 286.17408 
L 121.318623 286.05312 
L 121.323132 286.05312 
L 121.435861 285.93216 
L 121.54859 285.93216 
L 121.661319 285.8112 
L 123.68142 285.8112 
L 123.794148 285.69024 
L 124.993583 285.69024 
L 125.106312 285.56928 
L 125.264133 285.56928 
L 125.376861 285.44832 
L 127.577328 285.44832 
L 127.690057 285.56928 
L 128.195082 285.56928 
L 128.307811 285.44832 
L 128.447595 285.44832 
L 128.560324 285.32736 
L 128.74069 285.32736 
L 128.853419 285.2064 
L 129.624484 285.2064 
L 129.737213 285.08544 
L 130.427113 285.08544 
L 130.539842 284.96448 
L 132.072954 284.96448 
L 132.185683 284.84352 
L 132.541906 284.84352 
L 132.659144 284.6016 
L 132.902639 284.6016 
L 133.015367 284.48064 
L 133.317481 284.48064 
L 133.43021 284.35968 
L 134.241857 284.35968 
L 134.354586 284.23872 
L 134.408696 284.23872 
L 134.521425 284.11776 
L 135.603622 284.11776 
L 135.72086 283.87584 
L 137.483939 283.87584 
L 137.601177 283.63392 
L 138.349696 283.63392 
L 138.462425 283.51296 
L 138.484971 283.51296 
L 138.602209 283.27104 
L 138.642791 283.27104 
L 138.75552 283.15008 
L 139.440911 283.15008 
L 139.55364 283.02912 
L 140.279614 283.02912 
L 140.392343 282.90816 
L 140.523108 282.90816 
L 140.635837 282.7872 
L 140.870313 282.7872 
L 140.983042 282.66624 
L 141.492576 282.66624 
L 141.605305 282.54528 
L 142.425971 282.54528 
L 142.5387 282.42432 
L 144.125922 282.42432 
L 144.238651 282.30336 
L 144.969133 282.30336 
L 145.081862 282.1824 
L 146.998253 282.1824 
L 147.115491 281.94048 
L 147.219201 281.94048 
L 147.33193 281.81952 
L 148.098486 281.81952 
L 148.211215 281.69856 
L 149.207738 281.69856 
L 149.320467 281.5776 
L 150.515392 281.5776 
L 150.628121 281.45664 
L 150.682231 281.45664 
L 150.799469 281.21472 
L 150.844561 281.21472 
L 150.957289 281.09376 
L 152.409237 281.09376 
L 152.521966 280.9728 
L 153.608672 280.9728 
L 153.7214 280.85184 
L 154.212898 280.85184 
L 154.325627 280.73088 
L 156.102234 280.73088 
L 156.214962 280.60992 
L 156.481002 280.60992 
L 156.593731 280.73088 
L 158.126843 280.73088 
L 158.239572 280.60992 
L 158.483067 280.60992 
L 158.595795 280.48896 
L 159.759157 280.48896 
L 159.871886 280.368 
L 160.250655 280.368 
L 160.367893 280.12608 
L 160.746662 280.12608 
L 160.859391 280.24704 
L 160.895464 280.24704 
L 161.008193 280.12608 
L 161.211104 280.12608 
L 161.323833 280.00512 
L 163.907578 280.00512 
L 164.020307 279.88416 
L 164.317911 279.88416 
L 164.43064 279.7632 
L 164.692171 279.7632 
L 164.8049 279.64224 
L 164.813918 279.64224 
L 164.926647 279.52128 
L 165.111522 279.52128 
L 165.224251 279.40032 
L 165.332471 279.40032 
L 165.4452 279.27936 
L 165.769859 279.27936 
L 165.882588 279.1584 
L 166.261356 279.1584 
L 166.383104 278.79552 
L 166.495832 278.79552 
L 166.608561 278.67456 
L 166.640125 278.67456 
L 166.752854 278.5536 
L 167.321008 278.5536 
L 167.433736 278.43264 
L 168.240875 278.43264 
L 168.358113 278.19072 
L 169.805551 278.19072 
L 169.91828 278.06976 
L 170.39625 278.06976 
L 170.508979 277.9488 
L 170.657781 277.9488 
L 170.77051 277.82784 
L 171.122224 277.82784 
L 171.216916 277.70688 
L 171.230444 277.82784 
L 171.455901 277.82784 
L 171.56863 277.70688 
L 171.762524 277.70688 
L 171.875253 277.58592 
L 172.132274 277.58592 
L 172.245003 277.46496 
L 174.34176 277.46496 
L 174.454488 277.344 
L 177.944573 277.344 
L 178.061811 277.10208 
L 178.508217 277.10208 
L 178.620946 276.98112 
L 181.123527 276.98112 
L 181.236255 276.86016 
L 181.493277 276.86016 
L 181.560914 276.7392 
L 181.601497 276.86016 
L 182.074958 276.86016 
L 182.187687 276.7392 
L 182.309434 276.7392 
L 182.422163 276.61824 
L 182.80995 276.61824 
L 182.922679 276.49728 
L 183.292429 276.49728 
L 183.405158 276.37632 
L 184.122114 276.37632 
L 184.234842 276.25536 
L 184.798487 276.25536 
L 184.911215 276.1344 
L 185.348603 276.1344 
L 185.465841 275.89248 
L 187.062082 275.89248 
L 187.174811 275.77152 
L 190.286126 275.77152 
L 190.407874 275.40864 
L 190.624313 275.40864 
L 190.737042 275.28768 
L 192.265645 275.28768 
L 192.378374 275.16672 
L 192.66245 275.16672 
L 192.775179 275.04576 
L 193.30275 275.04576 
L 193.415479 274.9248 
L 193.789739 274.9248 
L 193.902468 274.80384 
L 194.461603 274.80384 
L 194.574332 274.68288 
L 195.250705 274.68288 
L 195.363433 274.56192 
L 197.288842 274.56192 
L 197.40608 274.32 
L 198.181654 274.32 
L 198.294383 274.19904 
L 198.31242 274.19904 
L 198.425149 274.07808 
L 198.894101 274.07808 
L 199.006829 274.19904 
L 200.594051 274.19904 
L 200.711289 273.95712 
L 201.374135 273.95712 
L 201.486864 273.83616 
L 201.644684 273.83616 
L 201.757413 273.7152 
L 201.915233 273.7152 
L 202.027962 273.59424 
L 202.176764 273.59424 
L 202.289493 273.47328 
L 202.560042 273.47328 
L 202.672771 273.35232 
L 204.638762 273.35232 
L 204.751491 273.23136 
L 206.280094 273.23136 
L 206.392823 273.1104 
L 207.240544 273.1104 
L 207.353273 273.23136 
L 207.393855 273.23136 
L 207.506584 273.1104 
L 207.605785 273.1104 
L 207.718514 272.98944 
L 207.817715 272.98944 
L 207.930444 272.86848 
L 208.516634 272.86848 
L 208.629363 272.74752 
L 210.311277 272.74752 
L 210.424006 272.62656 
L 211.352892 272.62656 
L 211.47013 272.38464 
L 212.719165 272.38464 
L 212.831894 272.5056 
L 213.427102 272.5056 
L 213.539831 272.38464 
L 213.562377 272.38464 
L 213.675106 272.26368 
L 213.774307 272.26368 
L 213.891545 272.02176 
L 214.342461 272.02176 
L 214.455189 271.9008 
L 215.018834 271.9008 
L 215.131562 271.77984 
L 215.681679 271.77984 
L 215.794408 271.65888 
L 216.10103 271.65888 
L 216.213759 271.53792 
L 216.389616 271.53792 
L 216.502345 271.41696 
L 217.841564 271.41696 
L 217.954293 271.296 
L 217.976838 271.296 
L 218.089567 271.41696 
L 218.472845 271.41696 
L 218.594592 271.05408 
L 218.932779 271.05408 
L 219.045508 271.17504 
L 219.252929 271.17504 
L 219.365658 271.05408 
L 220.488437 271.05408 
L 220.601166 270.93312 
L 221.300085 270.93312 
L 221.412813 270.81216 
L 221.615725 270.81216 
L 221.728454 270.6912 
L 222.576175 270.6912 
L 222.688904 270.57024 
L 223.202947 270.57024 
L 223.315676 270.44928 
L 225.894912 270.44928 
L 226.007641 270.32832 
L 226.147425 270.32832 
L 226.264663 270.0864 
L 226.729105 270.0864 
L 226.841834 269.96544 
L 226.959072 269.96544 
L 227.071801 270.0864 
L 227.198057 270.0864 
L 227.310786 269.96544 
L 228.117925 269.96544 
L 228.230654 269.84448 
L 229.200122 269.84448 
L 229.31285 269.72352 
L 229.344414 269.72352 
L 229.457143 269.60256 
L 229.777293 269.60256 
L 229.890022 269.4816 
L 231.860522 269.4816 
L 231.973251 269.36064 
L 232.009324 269.36064 
L 232.122053 269.23968 
L 232.379075 269.23968 
L 232.491804 269.36064 
L 232.902137 269.36064 
L 233.014865 269.23968 
L 233.114067 269.23968 
L 233.226796 269.11872 
L 236.054035 269.11872 
L 236.166764 268.99776 
L 237.276016 268.99776 
L 237.316598 269.11872 
L 237.384235 268.99776 
L 237.420308 268.99776 
L 237.533037 268.8768 
L 237.970425 268.8768 
L 238.083154 268.99776 
L 238.1057 268.99776 
L 238.110209 269.11872 
L 238.213919 268.99776 
L 238.416831 268.99776 
L 238.52956 268.8768 
L 239.01204 268.8768 
L 239.124768 268.75584 
L 239.32768 268.75584 
L 239.440409 268.63488 
L 239.931907 268.63488 
L 240.044636 268.51392 
L 243.534721 268.51392 
L 243.647449 268.63488 
L 244.891976 268.63488 
L 245.004705 268.51392 
L 245.374455 268.51392 
L 245.487184 268.63488 
L 245.730678 268.63488 
L 245.843407 268.51392 
L 246.398033 268.51392 
L 246.510762 268.63488 
L 246.876003 268.63488 
L 246.988732 268.75584 
L 248.156603 268.75584 
L 248.269332 268.8768 
L 248.323442 268.8768 
L 248.436171 268.75584 
L 250.695256 268.75584 
L 250.812494 268.51392 
L 251.466322 268.51392 
L 251.58356 268.272 
L 252.291497 268.272 
L 252.404226 268.39296 
L 253.702862 268.39296 
L 253.815591 268.272 
L 253.887737 268.272 
L 254.000466 268.15104 
L 255.447904 268.15104 
L 255.560633 268.03008 
L 256.417372 268.03008 
L 256.53461 267.78816 
L 256.665376 267.78816 
L 256.778105 267.6672 
L 256.971998 267.6672 
L 257.089236 267.42528 
L 257.129819 267.42528 
L 257.242547 267.30432 
L 260.087823 267.30432 
L 260.200552 267.18336 
L 260.259171 267.18336 
L 260.376409 266.94144 
L 261.345877 266.94144 
L 261.458606 266.82048 
L 261.54428 266.82048 
L 261.657009 266.69952 
L 262.053814 266.69952 
L 262.166543 266.57856 
L 262.211635 266.57856 
L 262.324363 266.4576 
L 262.9827 266.4576 
L 263.099938 266.21568 
L 263.72671 266.21568 
L 263.839439 266.09472 
L 263.99275 266.09472 
L 264.105479 265.97376 
L 265.129057 265.97376 
L 265.246295 265.73184 
L 266.292419 265.73184 
L 266.405147 265.61088 
L 268.172736 265.61088 
L 268.285464 265.48992 
L 269.719375 265.48992 
L 269.832104 265.36896 
L 270.503968 265.36896 
L 270.621206 265.12704 
L 270.747462 265.12704 
L 270.860191 265.00608 
L 271.784568 265.00608 
L 271.897296 265.12704 
L 272.695417 265.12704 
L 272.808145 265.00608 
L 273.592738 265.00608 
L 273.705467 265.12704 
L 273.894851 265.12704 
L 274.00758 265.00608 
L 274.959012 265.00608 
L 275.07174 265.12704 
L 275.806732 265.12704 
L 275.919461 265.248 
L 276.221575 265.248 
L 276.334303 265.12704 
L 277.042241 265.12704 
L 277.154969 265.00608 
L 277.348863 265.00608 
L 277.466101 264.76416 
L 277.980144 264.76416 
L 278.092873 264.6432 
L 279.878498 264.6432 
L 279.995736 264.40128 
L 280.951677 264.40128 
L 281.064405 264.28032 
L 283.427202 264.28032 
L 283.54444 264.0384 
L 283.905172 264.0384 
L 284.017901 263.91744 
L 284.973842 263.91744 
L 285.09108 263.67552 
L 285.848617 263.67552 
L 285.961346 263.55456 
L 287.124708 263.55456 
L 287.237437 263.4336 
L 287.417803 263.4336 
L 287.530532 263.31264 
L 289.663361 263.31264 
L 289.77609 263.19168 
L 290.294643 263.19168 
L 290.407372 263.31264 
L 290.795159 263.31264 
L 290.907888 263.19168 
L 291.210001 263.19168 
L 291.32273 263.07072 
L 292.053213 263.07072 
L 292.165941 263.19168 
L 292.486091 263.19168 
L 292.59882 263.07072 
L 292.851333 263.07072 
L 292.964062 262.94976 
L 293.360867 262.94976 
L 293.473596 262.8288 
L 294.217606 262.8288 
L 294.330335 262.70784 
L 294.506192 262.70784 
L 294.618921 262.58688 
L 295.344895 262.58688 
L 295.457624 262.46592 
L 295.466642 262.46592 
L 295.579371 262.34496 
L 295.800319 262.34496 
L 295.913048 262.224 
L 296.729205 262.224 
L 296.841934 262.34496 
L 297.157574 262.34496 
L 297.270303 262.224 
L 297.39656 262.224 
L 297.509288 262.10304 
L 298.447192 262.10304 
L 298.559921 262.224 
L 298.83047 262.224 
L 298.943199 262.10304 
L 299.68721 262.10304 
L 299.799938 261.98208 
L 300.715297 261.98208 
L 300.828025 261.86112 
L 301.01741 261.86112 
L 301.130139 261.74016 
L 301.553999 261.74016 
L 301.666728 261.6192 
L 303.14573 261.6192 
L 303.262968 261.37728 
L 303.578609 261.37728 
L 303.695847 261.13536 
L 305.981988 261.13536 
L 306.094717 261.0144 
L 306.311156 261.0144 
L 306.423885 260.89344 
L 306.604251 260.89344 
L 306.71698 260.77248 
L 306.8748 260.77248 
L 306.987529 260.65152 
L 307.497064 260.65152 
L 307.609792 260.53056 
L 307.975034 260.53056 
L 308.087763 260.65152 
L 308.344784 260.65152 
L 308.457513 260.53056 
L 309.986116 260.53056 
L 310.098845 260.65152 
L 310.694053 260.65152 
L 310.806782 260.53056 
L 311.284752 260.53056 
L 311.289262 260.65152 
L 311.392972 260.53056 
L 311.897997 260.53056 
L 311.920543 260.65152 
L 312.006217 260.53056 
L 313.065868 260.53056 
L 313.178597 260.4096 
L 314.779346 260.4096 
L 314.892075 260.28864 
L 315.257317 260.28864 
L 315.370046 260.16768 
L 316.267367 260.16768 
L 316.380096 260.04672 
L 316.772392 260.04672 
L 316.885121 260.16768 
L 317.097051 260.16768 
L 317.20978 260.04672 
L 318.111611 260.04672 
L 318.22434 260.16768 
L 318.693292 260.16768 
L 318.806021 260.04672 
L 319.423775 260.04672 
L 319.536503 259.92576 
L 319.829598 259.92576 
L 319.942327 259.8048 
L 320.158767 259.8048 
L 320.271495 259.92576 
L 320.632228 259.92576 
L 320.641246 260.04672 
L 320.740447 259.92576 
L 321.74148 259.92576 
L 321.854208 259.8048 
L 322.115739 259.8048 
L 322.228468 259.68384 
L 323.292628 259.68384 
L 323.405357 259.56288 
L 323.477504 259.56288 
L 323.590232 259.44192 
L 323.914892 259.44192 
L 324.03213 259.2 
L 324.397371 259.2 
L 324.424426 259.32096 
L 324.505591 259.2 
L 324.951997 259.2 
L 325.069235 258.95808 
L 325.547205 258.95808 
L 325.659934 258.83712 
L 326.80075 258.83712 
L 326.913479 258.71616 
L 327.900983 258.71616 
L 328.013712 258.5952 
L 328.144478 258.5952 
L 328.257206 258.71616 
L 328.581865 258.71616 
L 328.699103 258.47424 
L 329.492714 258.47424 
L 329.605443 258.35328 
L 329.682099 258.35328 
L 329.794828 258.23232 
L 330.241234 258.23232 
L 330.353963 258.11136 
L 332.23428 258.11136 
L 332.347009 257.9904 
L 332.477774 257.9904 
L 332.590503 258.11136 
L 332.613049 258.11136 
L 332.725778 257.9904 
L 333.082001 257.9904 
L 333.19473 258.11136 
L 333.339022 258.11136 
L 333.451751 257.9904 
L 335.327559 257.9904 
L 335.440288 257.86944 
L 336.044515 257.86944 
L 336.157243 257.74848 
L 336.824598 257.74848 
L 336.937327 257.62752 
L 337.041037 257.62752 
L 337.153766 257.74848 
L 337.487444 257.74848 
L 337.600173 257.62752 
L 338.740988 257.62752 
L 338.853717 257.74848 
L 339.453435 257.74848 
L 339.566163 257.62752 
L 339.899841 257.62752 
L 340.01257 257.50656 
L 341.045166 257.50656 
L 341.157895 257.3856 
L 341.18495 257.3856 
L 341.297678 257.26464 
L 341.640374 257.26464 
L 341.753103 257.14368 
L 342.749626 257.14368 
L 342.862355 257.02272 
L 343.187014 257.02272 
L 343.299743 257.14368 
L 344.638961 257.14368 
L 344.75169 257.02272 
L 344.972639 257.02272 
L 345.022239 257.14368 
L 345.080858 257.02272 
L 345.572356 257.02272 
L 345.685085 257.14368 
L 348.665635 257.14368 
L 348.670144 257.26464 
L 348.773855 257.14368 
L 350.162674 257.14368 
L 350.275403 257.02272 
L 350.645154 257.02272 
L 350.757883 256.90176 
L 350.798465 256.90176 
L 350.911194 256.7808 
L 351.005886 256.7808 
L 351.118615 256.65984 
L 351.429746 256.65984 
L 351.542475 256.53888 
L 351.673241 256.53888 
L 351.78597 256.65984 
L 351.921244 256.65984 
L 352.033973 256.53888 
L 352.399214 256.53888 
L 352.511943 256.41792 
L 354.189348 256.41792 
L 354.302077 256.53888 
L 354.44637 256.53888 
L 354.563608 256.29696 
L 354.595172 256.29696 
L 354.707901 256.176 
L 356.155339 256.176 
L 356.186903 256.05504 
L 356.263559 256.176 
L 356.434907 256.176 
L 356.547636 256.05504 
L 357.012079 256.05504 
L 357.124807 255.93408 
L 357.228518 255.93408 
L 357.341247 255.81312 
L 357.368302 255.81312 
L 357.48103 255.69216 
L 358.824758 255.69216 
L 358.937487 255.5712 
L 359.226073 255.5712 
L 359.343311 255.32928 
L 359.55975 255.32928 
L 359.676988 255.08736 
L 361.413012 255.08736 
L 361.534759 254.72448 
L 362.102913 254.72448 
L 362.215642 254.60352 
L 365.335976 254.60352 
L 365.448705 254.48256 
L 366.959271 254.48256 
L 367.044945 254.3616 
L 367.067491 254.48256 
L 367.558989 254.48256 
L 367.671717 254.3616 
L 368.339072 254.3616 
L 368.451801 254.24064 
L 369.074064 254.24064 
L 369.186793 254.11968 
L 369.903748 254.11968 
L 370.020986 253.87776 
L 371.432352 253.87776 
L 371.54508 253.7568 
L 372.744515 253.7568 
L 372.861753 253.51488 
L 373.267577 253.51488 
L 373.380306 253.63584 
L 373.700456 253.63584 
L 373.813185 253.7568 
L 375.936996 253.7568 
L 376.049725 253.63584 
L 376.144417 253.63584 
L 376.257146 253.51488 
L 376.730607 253.51488 
L 376.843336 253.39392 
L 376.883918 253.39392 
L 376.996647 253.27296 
L 377.731639 253.27296 
L 377.848877 253.03104 
L 377.88495 253.03104 
L 377.997679 253.152 
L 378.800308 253.152 
L 378.904019 253.03104 
L 378.908528 253.152 
L 379.5353 253.152 
L 379.648029 253.03104 
L 380.004252 253.03104 
L 380.116981 252.91008 
L 380.414585 252.91008 
L 380.531823 252.66816 
L 382.078463 252.66816 
L 382.191192 252.5472 
L 383.133605 252.5472 
L 383.246334 252.42624 
L 384.098564 252.42624 
L 384.215802 252.18432 
L 384.65319 252.18432 
L 384.765919 252.06336 
L 385.270944 252.06336 
L 385.383673 251.9424 
L 385.433273 251.9424 
L 385.546002 251.82144 
L 386.280994 251.82144 
L 386.393723 251.70048 
L 387.083623 251.70048 
L 387.196352 251.82144 
L 387.84567 251.82144 
L 387.958399 251.9424 
L 388.197384 251.9424 
L 388.310113 252.06336 
L 389.459947 252.06336 
L 389.572676 251.9424 
L 389.590713 251.9424 
L 389.703442 251.82144 
L 390.276104 251.82144 
L 390.388833 251.70048 
L 390.839748 251.70048 
L 390.952477 251.82144 
L 391.655905 251.82144 
L 391.768634 251.70048 
L 392.11133 251.70048 
L 392.224058 251.57952 
L 392.927486 251.57952 
L 393.040215 251.45856 
L 393.554259 251.45856 
L 393.671497 251.21664 
L 394.645474 251.21664 
L 394.758203 251.3376 
L 395.060316 251.3376 
L 395.173045 251.21664 
L 395.299301 251.21664 
L 395.41203 251.09568 
L 396.882014 251.09568 
L 396.994743 251.21664 
L 397.071399 251.21664 
L 397.184127 251.09568 
L 397.774826 251.09568 
L 397.887555 250.97472 
L 398.275343 250.97472 
L 398.388071 250.85376 
L 398.487273 250.85376 
L 398.487273 250.85376 
" clip-path="url(#pd57cd7b76b)" style="fill: none; stroke: #d62728; stroke-width: 1.5; stroke-linecap: square"/>
   </g>
   <g id="line2d_22">
    <path d="M 73.832727 295.488 
L 75.780682 295.488 
L 75.785191 295.36704 
L 75.888901 295.488 
L 76.614875 295.488 
L 76.619384 295.36704 
L 76.723095 295.488 
L 80.84897 295.488 
L 80.853479 295.36704 
L 80.95719 295.488 
L 84.10007 295.488 
L 84.104579 295.36704 
L 84.20829 295.488 
L 88.884282 295.488 
L 88.888791 295.36704 
L 88.992501 295.488 
L 89.583201 295.488 
L 89.58771 295.36704 
L 89.69142 295.488 
L 91.07573 295.488 
L 91.08024 295.36704 
L 91.18395 295.488 
L 92.717062 295.488 
L 92.721571 295.36704 
L 92.825282 295.488 
L 95.043786 295.488 
L 95.048295 295.36704 
L 95.152005 295.488 
L 98.060409 295.488 
L 98.105501 295.36704 
L 98.168629 295.488 
L 98.993804 295.488 
L 98.998313 295.36704 
L 99.102024 295.488 
L 99.620576 295.488 
L 99.625085 295.36704 
L 99.728796 295.488 
L 101.104088 295.488 
L 101.108597 295.36704 
L 101.212308 295.488 
L 103.759979 295.488 
L 103.764488 295.36704 
L 103.868199 295.488 
L 109.549732 295.488 
L 109.554242 295.36704 
L 109.657952 295.488 
L 110.005157 295.488 
L 110.009666 295.36704 
L 110.113377 295.488 
L 113.720699 295.488 
L 113.725209 295.36704 
L 113.828919 295.488 
L 118.270435 295.488 
L 118.274945 295.36704 
L 118.378655 295.488 
L 119.672782 295.488 
L 119.677291 295.36704 
L 119.781002 295.488 
L 121.201385 295.488 
L 121.205894 295.36704 
L 121.309605 295.488 
L 121.544081 295.488 
L 121.54859 295.36704 
L 121.652301 295.488 
L 124.989074 295.488 
L 124.993583 295.36704 
L 125.097294 295.488 
L 128.190573 295.488 
L 128.195082 295.36704 
L 128.298793 295.488 
L 132.898129 295.488 
L 132.902639 295.36704 
L 133.006349 295.488 
L 150.840051 295.488 
L 150.844561 295.36704 
L 150.948271 295.488 
L 152.404728 295.488 
L 152.409237 295.36704 
L 152.512947 295.488 
L 160.246146 295.488 
L 160.250655 295.36704 
L 160.354365 295.488 
L 161.206595 295.488 
L 161.211104 295.36704 
L 161.314815 295.488 
L 163.903069 295.488 
L 163.907578 295.36704 
L 164.011289 295.488 
L 166.270375 295.488 
L 166.274884 295.36704 
L 166.378594 295.488 
L 167.316498 295.488 
L 167.321008 295.36704 
L 167.424718 295.488 
L 169.801042 295.488 
L 169.805551 295.36704 
L 169.909262 295.488 
L 170.391741 295.488 
L 170.39625 295.36704 
L 170.499961 295.488 
L 176.339315 295.488 
L 176.343824 295.36704 
L 176.447534 295.488 
L 177.940064 295.488 
L 177.944573 295.36704 
L 178.048284 295.488 
L 181.119017 295.488 
L 181.123527 295.36704 
L 181.227237 295.488 
L 181.488768 295.488 
L 181.493277 295.36704 
L 181.596988 295.488 
L 183.28792 295.488 
L 183.292429 295.36704 
L 183.39614 295.488 
L 192.657941 295.488 
L 192.66245 295.36704 
L 192.766161 295.488 
L 197.338443 295.488 
L 197.342952 295.36704 
L 197.446662 295.488 
L 200.589542 295.488 
L 200.594051 295.36704 
L 200.697762 295.488 
L 207.389346 295.488 
L 207.393855 295.36704 
L 207.497566 295.488 
L 213.769798 295.488 
L 213.774307 295.36704 
L 213.878018 295.488 
L 215.67717 295.488 
L 215.681679 295.36704 
L 215.78539 295.488 
L 216.385107 295.488 
L 216.389616 295.36704 
L 216.493327 295.488 
L 229.772784 295.488 
L 229.777293 295.36704 
L 229.881004 295.488 
L 234.777944 295.488 
L 234.782454 295.36704 
L 234.886164 295.488 
L 239.00753 295.488 
L 239.01204 295.36704 
L 239.11575 295.488 
L 248.318933 295.488 
L 248.323442 295.36704 
L 248.427152 295.488 
L 251.497886 295.488 
L 251.502395 295.36704 
L 251.606105 295.488 
L 255.443395 295.488 
L 255.447904 295.36704 
L 255.551615 295.488 
L 261.341368 295.488 
L 261.345877 295.36704 
L 261.449588 295.488 
L 262.049305 295.488 
L 262.053814 295.36704 
L 262.157525 295.488 
L 265.124548 295.488 
L 265.129057 295.36704 
L 265.232767 295.488 
L 276.217065 295.488 
L 276.221575 295.36704 
L 276.325285 295.488 
L 277.448064 295.488 
L 277.452574 295.36704 
L 277.556284 295.488 
L 283.900663 295.488 
L 283.905172 295.36704 
L 284.008883 295.488 
L 289.658852 295.488 
L 289.663361 295.36704 
L 289.767072 295.488 
L 292.481582 295.488 
L 292.486091 295.36704 
L 292.589802 295.488 
L 299.6827 295.488 
L 299.68721 295.36704 
L 299.79092 295.488 
L 300.494348 295.488 
L 300.498857 295.36704 
L 300.602568 295.488 
L 301.54949 295.488 
L 301.553999 295.36704 
L 301.65771 295.488 
L 303.15024 295.488 
L 303.154749 295.36704 
L 303.258459 295.488 
L 303.601155 295.488 
L 303.605664 295.36704 
L 303.709375 295.488 
L 306.599742 295.488 
L 306.604251 295.36704 
L 306.707962 295.488 
L 311.916034 295.488 
L 311.920543 295.36704 
L 312.024254 295.488 
L 312.213638 295.488 
L 312.218147 295.36704 
L 312.321858 295.488 
L 317.092542 295.488 
L 317.097051 295.36704 
L 317.200762 295.488 
L 318.688783 295.488 
L 318.693292 295.36704 
L 318.797002 295.488 
L 321.281546 295.488 
L 321.286055 295.36704 
L 321.389766 295.488 
L 322.11123 295.488 
L 322.115739 295.36704 
L 322.21945 295.488 
L 325.04218 295.488 
L 325.046689 295.36704 
L 325.1504 295.488 
L 329.488205 295.488 
L 329.492714 295.36704 
L 329.596425 295.488 
L 332.229771 295.488 
L 332.23428 295.36704 
L 332.33799 295.488 
L 339.895332 295.488 
L 339.899841 295.36704 
L 340.003551 295.488 
L 342.745117 295.488 
L 342.749626 295.36704 
L 342.853336 295.488 
L 356.430398 295.488 
L 356.434907 295.36704 
L 356.538617 295.488 
L 357.363792 295.488 
L 357.368302 295.36704 
L 357.472012 295.488 
L 359.302728 295.488 
L 359.307238 295.36704 
L 359.410948 295.488 
L 359.658952 295.488 
L 359.663461 295.36704 
L 359.767171 295.488 
L 362.098404 295.488 
L 362.102913 295.36704 
L 362.206623 295.488 
L 369.069555 295.488 
L 369.074064 295.36704 
L 369.177775 295.488 
L 372.740006 295.488 
L 372.744515 295.36704 
L 372.848226 295.488 
L 376.726098 295.488 
L 376.730607 295.36704 
L 376.834317 295.488 
L 377.72713 295.488 
L 377.731639 295.36704 
L 377.83535 295.488 
L 380.410076 295.488 
L 380.414585 295.36704 
L 380.518296 295.488 
L 382.073954 295.488 
L 382.078463 295.36704 
L 382.182174 295.488 
L 383.611575 295.488 
L 383.616084 295.36704 
L 383.719795 295.488 
L 384.094055 295.488 
L 384.098564 295.36704 
L 384.202274 295.488 
L 384.648681 295.488 
L 384.65319 295.36704 
L 384.7569 295.488 
L 389.455438 295.488 
L 389.459947 295.36704 
L 389.563658 295.488 
L 398.487273 295.488 
L 398.487273 295.488 
" clip-path="url(#pd57cd7b76b)" style="fill: none; stroke: #9467bd; stroke-width: 1.5; stroke-linecap: square"/>
   </g>
   <g id="line2d_23">
    <path d="M 73.832727 295.488 
L 109.058235 295.488 
L 109.170964 295.36704 
L 110.325307 295.36704 
L 110.438036 295.24608 
L 114.415109 295.24608 
L 114.527838 295.12512 
L 127.577328 295.12512 
L 127.690057 295.00416 
L 156.481002 295.00416 
L 156.593731 294.8832 
L 160.746662 294.8832 
L 160.859391 294.76224 
L 171.216916 294.76224 
L 171.329645 294.64128 
L 181.560914 294.64128 
L 181.673643 294.52032 
L 198.894101 294.52032 
L 199.006829 294.39936 
L 207.240544 294.39936 
L 207.353273 294.2784 
L 212.719165 294.2784 
L 212.831894 294.15744 
L 217.976838 294.15744 
L 218.089567 294.03648 
L 218.932779 294.03648 
L 219.045508 293.91552 
L 226.959072 293.91552 
L 227.071801 293.79456 
L 232.379075 293.79456 
L 232.491804 293.6736 
L 237.276016 293.6736 
L 237.388744 293.55264 
L 237.974934 293.55264 
L 238.087663 293.43168 
L 243.534721 293.43168 
L 243.647449 293.31072 
L 245.374455 293.31072 
L 245.487184 293.18976 
L 246.398033 293.18976 
L 246.510762 293.0688 
L 246.880513 293.0688 
L 246.993241 292.94784 
L 248.156603 292.94784 
L 248.269332 292.82688 
L 252.291497 292.82688 
L 252.404226 292.70592 
L 271.784568 292.70592 
L 271.897296 292.58496 
L 273.592738 292.58496 
L 273.705467 292.464 
L 274.959012 292.464 
L 275.07174 292.34304 
L 275.806732 292.34304 
L 275.919461 292.22208 
L 290.294643 292.22208 
L 290.407372 292.10112 
L 292.053213 292.10112 
L 292.165941 291.98016 
L 296.729205 291.98016 
L 296.841934 291.8592 
L 298.447192 291.8592 
L 298.559921 291.73824 
L 307.975034 291.73824 
L 308.087763 291.61728 
L 309.990625 291.61728 
L 310.103354 291.49632 
L 311.284752 291.49632 
L 311.397481 291.37536 
L 311.897997 291.37536 
L 312.010726 291.2544 
L 316.776901 291.2544 
L 316.88963 291.13344 
L 318.111611 291.13344 
L 318.22434 291.01248 
L 318.404706 291.01248 
L 318.517435 290.89152 
L 320.158767 290.89152 
L 320.271495 290.77056 
L 320.632228 290.77056 
L 320.744957 290.6496 
L 321.286055 290.6496 
L 321.398784 290.52864 
L 324.397371 290.52864 
L 324.5101 290.40768 
L 328.144478 290.40768 
L 328.257206 290.28672 
L 332.477774 290.28672 
L 332.590503 290.16576 
L 333.082001 290.16576 
L 333.19473 290.0448 
L 337.045547 290.0448 
L 337.158275 289.92384 
L 338.740988 289.92384 
L 338.853717 289.80288 
L 343.187014 289.80288 
L 343.299743 289.68192 
L 344.972639 289.68192 
L 345.085367 289.56096 
L 345.572356 289.56096 
L 345.685085 289.44 
L 351.67775 289.44 
L 351.790479 289.31904 
L 354.189348 289.31904 
L 354.302077 289.19808 
L 356.186903 289.19808 
L 356.299632 289.07712 
L 367.049454 289.07712 
L 367.162183 288.95616 
L 373.267577 288.95616 
L 373.380306 288.8352 
L 373.709474 288.8352 
L 373.822203 288.71424 
L 377.889459 288.71424 
L 378.002188 288.59328 
L 378.904019 288.59328 
L 379.016748 288.47232 
L 387.083623 288.47232 
L 387.196352 288.35136 
L 387.85018 288.35136 
L 387.962908 288.2304 
L 388.197384 288.2304 
L 388.310113 288.10944 
L 390.839748 288.10944 
L 390.952477 287.98848 
L 394.649983 287.98848 
L 394.762712 287.86752 
L 396.882014 287.86752 
L 396.994743 287.74656 
L 398.487273 287.74656 
L 398.487273 287.74656 
" clip-path="url(#pd57cd7b76b)" style="fill: none; stroke: #8c564b; stroke-width: 1.5; stroke-linecap: square"/>
   </g>
   <g id="line2d_24">
    <path d="M 73.832727 295.488 
L 114.4106 295.488 
L 114.415109 295.36704 
L 114.51882 295.488 
L 237.970425 295.488 
L 237.974934 295.36704 
L 238.078645 295.488 
L 238.1057 295.488 
L 238.110209 295.36704 
L 238.213919 295.488 
L 246.876003 295.488 
L 246.880513 295.36704 
L 246.984223 295.488 
L 309.986116 295.488 
L 309.990625 295.36704 
L 310.094336 295.488 
L 316.772392 295.488 
L 316.776901 295.36704 
L 316.880612 295.488 
L 337.041037 295.488 
L 337.045547 295.36704 
L 337.149257 295.488 
L 348.665635 295.488 
L 348.670144 295.36704 
L 348.773855 295.488 
L 351.673241 295.488 
L 351.67775 295.36704 
L 351.78146 295.488 
L 367.044945 295.488 
L 367.049454 295.36704 
L 367.153165 295.488 
L 373.700456 295.488 
L 373.709474 295.36704 
L 373.808675 295.488 
L 377.88495 295.488 
L 377.889459 295.36704 
L 377.99317 295.488 
L 387.84567 295.488 
L 387.85018 295.36704 
L 387.95389 295.488 
L 394.645474 295.488 
L 394.649983 295.36704 
L 394.753694 295.488 
L 398.487273 295.488 
L 398.487273 295.488 
" clip-path="url(#pd57cd7b76b)" style="fill: none; stroke: #e377c2; stroke-width: 1.5; stroke-linecap: square"/>
   </g>
   <g id="patch_3">
    <path d="M 57.6 307.584 
L 57.6 41.472 
" style="fill: none; stroke: #000000; stroke-width: 0.8; stroke-linejoin: miter; stroke-linecap: square"/>
   </g>
   <g id="patch_4">
    <path d="M 414.72 307.584 
L 414.72 41.472 
" style="fill: none; stroke: #000000; stroke-width: 0.8; stroke-linejoin: miter; stroke-linecap: square"/>
   </g>
   <g id="patch_5">
    <path d="M 57.6 307.584 
L 414.72 307.584 
" style="fill: none; stroke: #000000; stroke-width: 0.8; stroke-linejoin: miter; stroke-linecap: square"/>
   </g>
   <g id="patch_6">
    <path d="M 57.6 41.472 
L 414.72 41.472 
" style="fill: none; stroke: #000000; stroke-width: 0.8; stroke-linejoin: miter; stroke-linecap: square"/>
   </g>
   <g id="legend_1">
    <g id="patch_7">
     <path d="M 347.435625 227.401437 
L 407.72 227.401437 
Q 409.72 227.401437 409.72 225.401437 
L 409.72 123.654562 
Q 409.72 121.654562 407.72 121.654562 
L 347.435625 121.654562 
Q 345.435625 121.654562 345.435625 123.654562 
L 345.435625 225.401437 
Q 345.435625 227.401437 347.435625 227.401437 
z
" style="fill: #ffffff; opacity: 0.8; stroke: #cccccc; stroke-linejoin: miter"/>
    </g>
    <g id="line2d_25">
     <path d="M 349.435625 129.753 
L 359.435625 129.753 
L 369.435625 129.753 
" style="fill: none; stroke: #1f77b4; stroke-width: 1.5; stroke-linecap: square"/>
    </g>
    <g id="text_20">
     <!-- E1 -->
     <g transform="translate(377.435625 133.253) scale(0.1 -0.1)">
      <defs>
       <path id="DejaVuSans-45" d="M 628 4666 
L 3578 4666 
L 3578 4134 
L 1259 4134 
L 1259 2753 
L 3481 2753 
L 3481 2222 
L 1259 2222 
L 1259 531 
L 3634 531 
L 3634 0 
L 628 0 
L 628 4666 
z
" transform="scale(0.015625)"/>
      </defs>
      <use xlink:href="#DejaVuSans-45"/>
      <use xlink:href="#DejaVuSans-31" x="63.183594"/>
     </g>
    </g>
    <g id="line2d_26">
     <path d="M 349.435625 144.431125 
L 359.435625 144.431125 
L 369.435625 144.431125 
" style="fill: none; stroke: #ff7f0e; stroke-width: 1.5; stroke-linecap: square"/>
    </g>
    <g id="text_21">
     <!--  E2 -->
     <g transform="translate(377.435625 147.931125) scale(0.1 -0.1)">
      <use xlink:href="#DejaVuSans-20"/>
      <use xlink:href="#DejaVuSans-45" x="31.787109"/>
      <use xlink:href="#DejaVuSans-32" x="94.970703"/>
     </g>
    </g>
    <g id="line2d_27">
     <path d="M 349.435625 159.10925 
L 359.435625 159.10925 
L 369.435625 159.10925 
" style="fill: none; stroke: #2ca02c; stroke-width: 1.5; stroke-linecap: square"/>
    </g>
    <g id="text_22">
     <!--  i -->
     <g transform="translate(377.435625 162.60925) scale(0.1 -0.1)">
      <use xlink:href="#DejaVuSans-20"/>
      <use xlink:href="#DejaVuSans-69" x="31.787109"/>
     </g>
    </g>
    <g id="line2d_28">
     <path d="M 349.435625 173.787375 
L 359.435625 173.787375 
L 369.435625 173.787375 
" style="fill: none; stroke: #d62728; stroke-width: 1.5; stroke-linecap: square"/>
    </g>
    <g id="text_23">
     <!--  s -->
     <g transform="translate(377.435625 177.287375) scale(0.1 -0.1)">
      <defs>
       <path id="DejaVuSans-73" d="M 2834 3397 
L 2834 2853 
Q 2591 2978 2328 3040 
Q 2066 3103 1784 3103 
Q 1356 3103 1142 2972 
Q 928 2841 928 2578 
Q 928 2378 1081 2264 
Q 1234 2150 1697 2047 
L 1894 2003 
Q 2506 1872 2764 1633 
Q 3022 1394 3022 966 
Q 3022 478 2636 193 
Q 2250 -91 1575 -91 
Q 1294 -91 989 -36 
Q 684 19 347 128 
L 347 722 
Q 666 556 975 473 
Q 1284 391 1588 391 
Q 1994 391 2212 530 
Q 2431 669 2431 922 
Q 2431 1156 2273 1281 
Q 2116 1406 1581 1522 
L 1381 1569 
Q 847 1681 609 1914 
Q 372 2147 372 2553 
Q 372 3047 722 3315 
Q 1072 3584 1716 3584 
Q 2034 3584 2315 3537 
Q 2597 3491 2834 3397 
z
" transform="scale(0.015625)"/>
      </defs>
      <use xlink:href="#DejaVuSans-20"/>
      <use xlink:href="#DejaVuSans-73" x="31.787109"/>
     </g>
    </g>
    <g id="line2d_29">
     <path d="M 349.435625 188.4655 
L 359.435625 188.4655 
L 369.435625 188.4655 
" style="fill: none; stroke: #9467bd; stroke-width: 1.5; stroke-linecap: square"/>
    </g>
    <g id="text_24">
     <!--  E1- -s -->
     <g transform="translate(377.435625 191.9655) scale(0.1 -0.1)">
      <defs>
       <path id="DejaVuSans-2d" d="M 313 2009 
L 1997 2009 
L 1997 1497 
L 313 1497 
L 313 2009 
z
" transform="scale(0.015625)"/>
      </defs>
      <use xlink:href="#DejaVuSans-20"/>
      <use xlink:href="#DejaVuSans-45" x="31.787109"/>
      <use xlink:href="#DejaVuSans-31" x="94.970703"/>
      <use xlink:href="#DejaVuSans-2d" x="158.59375"/>
      <use xlink:href="#DejaVuSans-2d" x="194.677734"/>
      <use xlink:href="#DejaVuSans-73" x="230.761719"/>
     </g>
    </g>
    <g id="line2d_30">
     <path d="M 349.435625 203.143625 
L 359.435625 203.143625 
L 369.435625 203.143625 
" style="fill: none; stroke: #8c564b; stroke-width: 1.5; stroke-linecap: square"/>
    </g>
    <g id="text_25">
     <!--  E2- -i -->
     <g transform="translate(377.435625 206.643625) scale(0.1 -0.1)">
      <use xlink:href="#DejaVuSans-20"/>
      <use xlink:href="#DejaVuSans-45" x="31.787109"/>
      <use xlink:href="#DejaVuSans-32" x="94.970703"/>
      <use xlink:href="#DejaVuSans-2d" x="158.59375"/>
      <use xlink:href="#DejaVuSans-2d" x="194.677734"/>
      <use xlink:href="#DejaVuSans-69" x="230.761719"/>
     </g>
    </g>
    <g id="line2d_31">
     <path d="M 349.435625 217.82175 
L 359.435625 217.82175 
L 369.435625 217.82175 
" style="fill: none; stroke: #e377c2; stroke-width: 1.5; stroke-linecap: square"/>
    </g>
    <g id="text_26">
     <!--  p -->
     <g transform="translate(377.435625 221.32175) scale(0.1 -0.1)">
      <defs>
       <path id="DejaVuSans-70" d="M 1159 525 
L 1159 -1331 
L 581 -1331 
L 581 3500 
L 1159 3500 
L 1159 2969 
Q 1341 3281 1617 3432 
Q 1894 3584 2278 3584 
Q 2916 3584 3314 3078 
Q 3713 2572 3713 1747 
Q 3713 922 3314 415 
Q 2916 -91 2278 -91 
Q 1894 -91 1617 61 
Q 1341 213 1159 525 
z
M 3116 1747 
Q 3116 2381 2855 2742 
Q 2594 3103 2138 3103 
Q 1681 3103 1420 2742 
Q 1159 2381 1159 1747 
Q 1159 1113 1420 752 
Q 1681 391 2138 391 
Q 2594 391 2855 752 
Q 3116 1113 3116 1747 
z
" transform="scale(0.015625)"/>
      </defs>
      <use xlink:href="#DejaVuSans-20"/>
      <use xlink:href="#DejaVuSans-70" x="31.787109"/>
     </g>
    </g>
   </g>
  </g>
 </g>
 <defs>
  <clipPath id="pd57cd7b76b">
   <rect x="57.6" y="41.472" width="357.12" height="266.112"/>
  </clipPath>
 </defs>
</svg>
